<?xml version="1.0" encoding="UTF-8" standalone="no"?>
<!-- Created with Inkscape (http://www.inkscape.org/) -->

<svg
   version="1.1"
   id="svg2"
   xml:space="preserve"
   width="864"
   height="432"
   viewBox="0 0 864 432"
   sodipodi:docname="GH_Logo_wordmark_no_outline.eps"
   xmlns:inkscape="http://www.inkscape.org/namespaces/inkscape"
   xmlns:sodipodi="http://sodipodi.sourceforge.net/DTD/sodipodi-0.dtd"
   xmlns="http://www.w3.org/2000/svg"
   xmlns:svg="http://www.w3.org/2000/svg"><defs
     id="defs6" /><sodipodi:namedview
     id="namedview4"
     pagecolor="#ffffff"
     bordercolor="#666666"
     borderopacity="1.0"
     inkscape:pageshadow="2"
     inkscape:pageopacity="0.0"
     inkscape:pagecheckerboard="0" /><g
     id="g8"
     inkscape:groupmode="layer"
     inkscape:label="ink_ext_XXXXXX"
     transform="matrix(1.3333333,0,0,-1.3333333,0,432)"><g
       id="g10"
       transform="scale(0.1)"><path
         d="m 5800.1,2844.84 v -75.36 h -20.79 v 75.36 h -28.77 v 19.18 h 78.32 v -19.18 h -28.76"
         style="fill:#353336;fill-opacity:1;fill-rule:nonzero;stroke:none"
         id="path12" /><path
         d="m 5918.71,2769.48 v 61.72 l -26.61,-40.38 h -0.54 l -26.32,39.97 v -61.31 h -20.39 v 94.54 h 22.41 l 24.84,-39.97 24.85,39.97 h 22.42 v -94.54 h -20.66"
         style="fill:#353336;fill-opacity:1;fill-rule:nonzero;stroke:none"
         id="path14" /><path
         d="m 1611.73,543.32 c -25.16,19.442 -41.68,55.91 -46.01,109.489 -3.41,42.601 2,89.73 16.4,141.351 14.4,51.578 39.35,97.711 73.44,138.32 34.12,40.629 76.85,65.192 127.81,73.67 31.56,5.26 56.78,2.83 75.58,-7.349 18.84,-10.153 27.63,-29.063 26.74,-56.629 -0.61,-17.442 -4.53,-31.801 -11.93,-42.91 -7.35,-11.18 -18.59,-17.953 -33.67,-20.492 -15.07,-2.52 -26.95,0.742 -35.56,9.832 7.68,4.929 14.5,13.32 20.73,25.296 6.13,11.961 9.53,23.782 9.9,35.571 0.37,10.953 -2.4,19.351 -8.19,25.25 -5.84,5.883 -15.5,7.691 -28.95,5.453 -22.28,-3.684 -44.12,-21.942 -65.24,-54.762 -21.05,-32.808 -38.21,-72.558 -50.4,-119.289 -12.18,-46.699 -16.9,-90.801 -14.1,-132.16 2.1,-30.859 9.81,-53.492 22.29,-67.91 12.49,-14.391 32.77,-19.192 60.61,-14.449 24.15,4.128 45.85,13.25 65.31,27.308 19.5,14.02 35.82,32.078 49.37,54.11 4.89,-1.231 9.79,-2.438 14.67,-3.661 -8.56,-27.339 -21.66,-51.238 -39.78,-71.718 -18.07,-20.5 -37.75,-36.672 -59.36,-48.52 -21.65,-11.832 -42.43,-19.512 -62.77,-23.019 -45.86,-7.973 -81.67,-2.211 -106.89,17.218"
         style="fill:#353336;fill-opacity:1;fill-rule:nonzero;stroke:none"
         id="path16" /><path
         d="m 2011.88,656.852 c 9.05,12.859 16.71,29.5 23.19,50.097 6.49,20.5 11.21,42.871 14.14,66.973 -11.29,0.566 -17.07,8.066 -17.22,22.707 -0.08,16.652 6.42,28.68 19.44,36.152 -0.75,13.278 -2.71,22.16 -6.01,26.641 -3.26,4.508 -9.11,6.117 -17.48,4.648 -13.8,-2.308 -27.46,-14.261 -40.51,-35.949 -13.05,-21.633 -23.39,-46.75 -30.56,-75.289 -7.22,-28.543 -9.94,-53.141 -8.64,-73.832 1.25,-19.48 4.66,-32.191 9.78,-38.121 5.11,-5.938 13.65,-7.899 25.59,-5.828 9.89,1.691 19.26,8.949 28.28,21.801 z m -121.57,-69.981 c -19.48,12.41 -31.2,35.27 -33.83,68.539 -2.11,27.61 1.93,59.211 12.66,94.879 10.71,35.652 29.48,67.93 55.74,96.84 26.23,28.922 59.34,46.66 98.77,53.262 53.85,8.98 79.34,-19.012 79.14,-83.93 v -0.621 c 1.25,-0.211 3.59,-0.012 6.91,0.539 13.76,2.332 29.65,8.531 47.7,18.66 18.03,10.121 34.49,21.481 49.33,34.09 1.8,-5.16 3.59,-10.328 5.41,-15.488 -12.3,-14.629 -28.18,-27.911 -47.58,-39.911 -19.46,-11.98 -40.55,-21.761 -63.46,-29.261 -2.88,-37.489 -10.18,-71.18 -22.09,-101.141 -11.96,-29.898 -27.48,-54.18 -47.2,-72.859 -19.76,-18.668 -41.82,-30.16 -66.74,-34.418 -30.25,-5.18 -55.23,-1.571 -74.76,10.82"
         style="fill:#353336;fill-opacity:1;fill-rule:nonzero;stroke:none"
         id="path18" /><path
         d="m 2463.91,680.059 c -12.66,11.171 -19.48,26.5 -20.22,46.023 -0.31,8.52 0.39,18.348 2.2,29.438 1.83,11.07 3.8,21.921 6.01,32.46 2.19,10.52 3.72,17.282 4.57,20.27 3.29,14.738 6.53,29.281 9.61,43.582 3.14,14.309 4.79,25.699 4.97,34.238 0.42,20.668 -6.76,29.809 -21.91,27.25 -10.92,-1.82 -20.72,-8.59 -29.36,-20.371 -8.64,-11.75 -15.66,-26.367 -20.83,-43.859 -14.96,-67.531 -27.8,-135.051 -36.35,-202.578 -29.68,-5.063 -59.33,-10.121 -88.96,-15.18 8.49,72.578 22.09,145.156 38.15,217.727 1.3,5.082 2.01,10.293 2.09,15.543 0.29,17.878 -5.76,25.769 -18.36,23.628 -11.73,-1.941 -22.07,-8.82 -30.82,-20.621 -8.78,-11.808 -15.75,-26.64 -20.81,-44.519 -14.37,-67.539 -26.34,-135.07 -33.77,-202.598 -29.59,-5.062 -59.16,-10.113 -88.7,-15.172 10.51,105.2 32.43,210.399 57.68,315.578 30.24,5.063 60.48,10.114 90.74,15.161 -2.64,-10.938 -5.26,-21.879 -7.83,-32.821 22,26.731 48.11,42.582 77.95,47.571 36.99,6.171 58.03,-7.661 63.29,-41.528 24.09,38.379 54.05,60.457 89.36,66.391 21.45,3.59 38.28,0.75 50.48,-8.512 12.22,-9.269 17.85,-25.461 17.18,-48.601 -0.28,-11.789 -2.13,-25.098 -5.36,-39.989 -3.23,-14.91 -7.68,-33.172 -13.16,-54.789 -3.42,-13.16 -6.37,-25.902 -8.93,-38.351 -2.58,-12.442 -3.71,-22.11 -3.55,-29 0.17,-8.129 2.28,-14.09 6.15,-17.918 3.89,-3.84 10.42,-5 19.56,-3.442 12.45,2.102 22.32,8.16 29.54,18.141 7.3,10 14.45,24.769 21.87,44.258 8.76,1.48 17.53,2.961 26.3,4.429 -15.2,-47.226 -31.6,-80.16 -50.97,-98.789 -19.32,-18.629 -39.5,-29.777 -61,-33.418 -25.17,-4.281 -44.17,-0.82 -56.81,10.368"
         style="fill:#353336;fill-opacity:1;fill-rule:nonzero;stroke:none"
         id="path20" /><path
         d="m 2932.08,759.238 c -12.19,11.16 -18.38,26.532 -18.48,46.012 -0.04,8.488 0.99,18.352 3.17,29.43 2.15,11.101 4.49,21.961 6.95,32.461 2.46,10.558 4.2,17.308 5.1,20.269 3.63,14.781 7.21,29.289 10.57,43.602 3.4,14.297 5.24,25.687 5.57,34.226 0.77,20.703 -6.35,29.782 -21.54,27.262 -10.98,-1.801 -20.77,-8.629 -29.62,-20.379 -8.78,-11.73 -16.04,-26.371 -21.59,-43.84 -16.29,-67.551 -31.3,-135.082 -42.86,-202.609 -29.9,-5.051 -59.79,-10.113 -89.65,-15.152 11.84,72.57 27.85,145.152 45.35,217.73 1.41,5.109 2.23,10.289 2.38,15.531 0.6,17.879 -5.33,25.699 -17.97,23.641 -11.75,-1.981 -22.22,-8.852 -31.15,-20.621 -8.93,-11.813 -16.26,-26.66 -21.71,-44.531 -15.92,-67.54 -30.29,-135.071 -40.93,-202.61 -29.85,-5.051 -59.66,-10.109 -89.44,-15.16 15.72,105.199 40.84,210.398 67.25,315.59 30.3,5.05 60.6,10.1 90.92,15.15 -2.76,-10.94 -5.5,-21.881 -8.24,-32.818 22.38,26.718 48.56,42.578 78.45,47.558 37.03,6.16 57.94,-7.67 62.88,-41.519 24.5,38.389 54.55,60.499 89.9,66.389 21.53,3.59 38.3,0.73 50.44,-8.52 12.16,-9.25 17.72,-25.44 16.79,-48.58 -0.48,-11.781 -2.46,-25.09 -5.91,-40.02 -3.42,-14.89 -8.31,-33.16 -14.24,-54.761 -3.68,-13.149 -6.99,-25.949 -9.89,-38.379 -2.87,-12.391 -4.34,-22.09 -4.4,-28.988 -0.03,-8.122 1.77,-14.082 5.57,-17.911 3.79,-3.871 10.28,-4.98 19.45,-3.429 12.58,2.109 22.56,8.136 30.13,18.136 7.58,10.024 15.25,24.692 23.14,44.262 8.81,1.481 17.61,2.942 26.41,4.43 -16.38,-47.258 -34.03,-80.141 -54.09,-98.809 -20,-18.64 -40.67,-29.781 -62.31,-33.41 -25.38,-4.301 -44.2,-0.801 -56.4,10.367"
         style="fill:#353336;fill-opacity:1;fill-rule:nonzero;stroke:none"
         id="path22" /><path
         d="m 3091.54,784.551 c -12.48,10.129 -18.77,27.359 -18.62,51.711 0.07,10.136 1.88,23.597 5.55,40.398 15.49,67.531 32.83,135.06 49.86,202.59 30.31,5.05 60.62,10.11 90.92,15.17 -17.96,-71.54 -36.46,-143.061 -52.93,-214.58 -1.4,-6.309 -2.11,-12.09 -2.19,-17.36 -0.23,-16.652 6.04,-23.91 18.55,-21.789 11.74,1.93 21.82,8.368 30.32,19.34 8.55,10.957 15.49,25.188 20.93,42.629 15.93,67.539 33.42,135.07 50.33,202.6 30.3,5.05 60.61,10.11 90.9,15.16 -17.8,-71.52 -36.44,-143.041 -53.35,-214.58 -1.85,-6.379 -2.83,-13.008 -2.99,-19.891 -0.16,-8.148 1.73,-13.609 5.65,-16.371 3.85,-2.797 10.48,-3.418 19.71,-1.848 11.75,1.981 21.98,8.54 30.79,19.711 8.83,11.207 15.94,25.329 21.52,42.399 8.82,1.461 17.64,2.949 26.46,4.422 -16.96,-46.453 -36.52,-79.391 -59.4,-98.84 -22.92,-19.473 -45.74,-31.07 -68.67,-34.961 -17.94,-3 -32.29,-0.57 -42.99,7.391 -10.69,7.937 -17.08,21.277 -18.98,40.019 -14.5,-24.691 -29.33,-42.43 -44.91,-53.18 -15.55,-10.75 -31.51,-17.492 -47.72,-20.23 -20.01,-3.391 -36.26,0 -48.74,10.09"
         style="fill:#353336;fill-opacity:1;fill-rule:nonzero;stroke:none"
         id="path24" /><path
         d="m 3565.17,865.59 c -11.74,11.14 -17.42,26.531 -16.85,45.992 0.23,8.539 1.55,18.348 4.02,29.449 2.45,11.078 5.02,21.918 7.74,32.457 2.69,10.543 4.53,17.301 5.49,20.274 3.93,14.768 7.71,29.318 11.21,43.598 3.58,14.29 5.49,25.72 5.83,34.21 0.86,20.7 -6.29,29.79 -21.46,27.27 -10.96,-1.81 -20.85,-8.6 -29.67,-20.38 -8.86,-11.73 -16.17,-26.36 -21.91,-43.85 -17.06,-67.54 -33.95,-135.071 -48.53,-202.598 -30.13,-5.051 -60.25,-10.114 -90.34,-15.16 22.17,105.187 50.34,210.388 76.4,315.568 30.28,5.06 60.56,10.11 90.82,15.16 -2.66,-10.94 -5.38,-21.87 -8.1,-32.81 21.91,26.25 46.88,41.73 75.05,46.41 21.43,3.6 38.32,0.77 50.49,-8.51 12.21,-9.28 17.95,-25.41 17.01,-48.6 -0.48,-11.76 -2.5,-25.08 -6.05,-40.01 -3.53,-14.86 -8.54,-33.16 -14.83,-54.76 -3.9,-13.159 -7.46,-25.972 -10.62,-38.359 -3.12,-12.453 -4.9,-22.121 -5.11,-29 -0.26,-8.132 1.44,-14.101 5.09,-17.921 3.66,-3.848 10.11,-4.981 19.34,-3.43 12.6,2.121 22.82,8.129 30.65,18.129 7.82,10 15.9,24.769 24.17,44.269 8.84,1.481 17.68,2.961 26.51,4.422 -17.35,-47.219 -36.06,-80.16 -56.76,-98.789 -20.69,-18.652 -41.83,-29.789 -63.61,-33.402 -25.57,-4.309 -44.26,-0.809 -55.98,10.371"
         style="fill:#353336;fill-opacity:1;fill-rule:nonzero;stroke:none"
         id="path26" /><path
         d="m 3793.61,1237 c -9.53,7.73 -14.15,18.28 -14.11,31.67 0.05,13.39 4.84,25.68 14.39,36.83 9.54,11.18 21.11,17.91 34.87,20.22 13.71,2.33 25.63,-0.46 35.55,-8.37 9.88,-7.87 14.93,-18.5 14.95,-31.94 0,-13.38 -4.98,-25.56 -14.95,-36.56 -9.98,-11.01 -21.93,-17.67 -35.73,-19.95 -13.86,-2.33 -25.51,0.37 -34.97,8.1 z m -68.06,-346.102 c -12.07,10.09 -17.84,27.352 -17.02,51.692 0.34,10.129 2.52,23.582 6.47,40.398 16.84,67.532 34.38,135.062 50.49,202.602 30.23,5.06 60.47,10.12 90.69,15.16 -16.8,-71.52 -35.42,-143.05 -53.26,-214.578 -1.93,-6.332 -3.04,-13 -3.27,-19.891 -0.32,-8.133 1.52,-13.582 5.38,-16.371 3.82,-2.801 10.41,-3.351 19.69,-1.851 12.19,2.05 23.69,8.863 34.6,20.601 10.88,11.692 18.93,25.828 24.23,42.45 8.84,1.47 17.68,2.95 26.52,4.42 -17.43,-46.428 -38.33,-79.491 -63.15,-99.198 -24.82,-19.691 -49.07,-31.543 -72.98,-35.543 -20.13,-3.359 -36.28,0.012 -48.39,10.109"
         style="fill:#353336;fill-opacity:1;fill-rule:nonzero;stroke:none"
         id="path28" /><path
         d="m 3893.7,919 c -12.03,10.109 -17.66,27.359 -16.75,51.711 0.39,10.117 2.59,23.609 6.6,40.399 14.98,59.14 30.28,118.27 44.44,177.4 -6.93,-1.15 -13.86,-2.31 -20.79,-3.47 1.9,8.4 3.79,16.79 5.65,25.19 6.94,1.16 13.84,2.32 20.77,3.47 6.9,29.07 13.48,58.13 19.58,87.19 30.87,9.26 61.7,18.5 92.48,27.76 -6.53,-33.27 -13.77,-66.53 -21.47,-99.79 12.59,2.11 25.16,4.22 37.74,6.32 -1.81,-8.39 -3.65,-16.79 -5.5,-25.19 -12.6,-2.11 -25.19,-4.21 -37.78,-6.32 -14.9,-63.12 -31.22,-126.25 -47.19,-189.39 -1.97,-6.38 -3.07,-13 -3.32,-19.889 -0.37,-8.129 1.46,-13.582 5.32,-16.36 3.82,-2.793 10.45,-3.39 19.67,-1.851 12.17,2.031 23.72,8.902 34.67,20.601 10.92,11.679 19,25.839 24.32,42.429 8.84,1.48 17.69,2.96 26.53,4.43 -17.44,-46.41 -38.57,-79.48 -63.46,-99.179 -24.94,-19.699 -49.23,-31.563 -73.19,-35.563 -20.16,-3.367 -36.29,0 -48.32,10.102"
         style="fill:#353336;fill-opacity:1;fill-rule:nonzero;stroke:none"
         id="path30" /><path
         d="m 4151.07,861.082 c 6.81,8.566 12.24,21.598 16.45,38.84 2.82,12.41 5.68,24.797 8.6,37.187 -22.52,-11.007 -39.99,-22.429 -52.42,-34.199 -12.47,-11.762 -18.81,-25.379 -19.03,-40.808 -0.1,-4.872 2.36,-9.012 7.37,-12.442 4.96,-3.398 10.84,-4.57 17.52,-3.441 7.51,1.293 14.69,6.222 21.51,14.863 z m -58.95,-56.742 c -14.9,9.871 -22.32,24.371 -22.11,43.449 0.17,17.859 5.1,33.27 14.59,46.16 9.48,12.91 21.74,23.86 36.64,32.781 14.94,8.981 34.89,19.129 59.95,30.602 2.43,9.277 4.87,18.559 7.32,27.848 -22.39,-27.11 -48.4,-43.192 -78.22,-48.168 -20.2,-3.364 -36.31,-0.032 -48.28,10.109 -12,10.098 -17.54,27.359 -16.55,51.688 0.41,10.161 2.64,23.611 6.68,40.401 17.06,67.54 34.24,135.06 49.4,202.6 30.17,5.05 60.33,10.11 90.47,15.17 -15.71,-71.53 -33.87,-143.06 -51.94,-214.58 -1.46,-5.1 -2.31,-10.28 -2.54,-15.53 -0.76,-17.86 5.25,-25.76 17.83,-23.64 11.78,1.96 22.08,8.43 30.9,19.36 8.83,10.92 16.1,25.14 21.87,42.63 17.06,67.53 33.95,135.07 48.55,202.59 30.33,5.1 60.67,10.19 90.99,15.28 -25.56,-121.99 -59.14,-243.98 -88.14,-365.969 -9.54,-40.371 -24.61,-69.832 -45.76,-88.41 -21.22,-18.52 -44.4,-29.941 -69.85,-34.25 -19.67,-3.301 -36.93,0.008 -51.8,9.879"
         style="fill:#353336;fill-opacity:1;fill-rule:nonzero;stroke:none"
         id="path32" /><path
         d="m 4631.87,1441.32 c -26.77,-16.07 -47.1,-36.77 -61.28,-62.02 -14.22,-25.3 -21.17,-54.01 -21.05,-86.06 0.04,-15.03 1.42,-25.23 4.31,-30.61 2.93,-5.4 4.36,-8.51 4.32,-9.32 -22.61,-3.8 -39.43,-2.05 -50.42,5.24 -11.02,7.29 -16.46,21.45 -16.57,42.57 -0.17,25.97 10.22,53.08 30.98,81.31 20.73,28.28 47.19,52.83 79.66,73.84 32.47,21.02 65.21,34.31 98.89,40.1 5.76,0.98 14,2 24.75,3 -6.24,-62.72 -16.58,-125.45 -29.32,-188.18 30.68,5.17 61.33,10.33 91.98,15.49 12.31,62.73 22.11,125.44 27.67,188.18 29.47,5.04 58.91,10.09 88.32,15.14 -11.86,-157.38 -51.32,-314.76 -91.2,-472.16 -30.32,-5.04 -60.63,-10.09 -90.94,-15.15 20.07,79.12 40.24,158.23 57.07,237.34 -30.73,-5.14 -61.47,-10.3 -92.23,-15.48 -17.26,-79.11 -37.63,-158.22 -57.67,-237.33 -30.32,-5.06 -60.63,-10.12 -90.94,-15.18 36.22,143.1 74.22,286.19 93.67,429.28"
         style="fill:#353336;fill-opacity:1;fill-rule:nonzero;stroke:none"
         id="path34" /><path
         d="m 4909.18,1088.41 c -11.97,10.1 -17.38,27.38 -16.47,51.7 0.38,10.17 2.49,23.6 6.33,40.4 16.2,67.54 31.01,135.07 42.28,202.6 29.87,5.05 59.74,10.11 89.56,15.15 -11.37,-71.53 -26.87,-143.05 -43.95,-214.58 -1.44,-6.3 -2.24,-12.05 -2.42,-17.35 -0.49,-16.64 5.47,-23.89 18.08,-21.81 11.78,1.97 22,8.43 30.75,19.37 8.75,10.93 15.83,25.16 21.27,42.63 15.79,67.53 29.93,135.06 40.27,202.6 29.82,5.05 59.6,10.09 89.37,15.15 -10.34,-71.52 -25.11,-143.05 -41.78,-214.58 -1.81,-6.37 -2.82,-12.97 -3.01,-19.89 -0.24,-8.14 1.61,-13.6 5.48,-16.37 3.92,-2.75 10.45,-3.38 19.7,-1.85 11.74,1.96 22.11,8.51 30.98,19.72 8.89,11.16 16.01,25.32 21.31,42.37 8.79,1.48 17.59,2.96 26.4,4.43 -16.18,-46.43 -36.58,-79.4 -60.02,-98.82 -23.47,-19.44 -46.86,-31.12 -70,-34.97 -18.06,-3.04 -32.28,-0.56 -42.65,7.4 -10.38,7.96 -16.23,21.28 -17.65,40.02 -15.05,-24.72 -30.75,-42.46 -46.86,-53.19 -16.08,-10.77 -32.36,-17.47 -48.78,-20.24 -20.23,-3.35 -36.25,0 -48.19,10.11"
         style="fill:#353336;fill-opacity:1;fill-rule:nonzero;stroke:none"
         id="path36" /><path
         d="m 5371.74,1229.55 c 11.58,17.5 20.85,38.53 27.45,62.98 6.63,24.46 9.55,47.44 8.84,68.96 -0.53,16.25 -4.04,29.57 -10.48,39.93 -6.4,10.36 -14.85,14.69 -25.19,12.95 -6.18,-1.08 -13.09,-3.15 -20.64,-6.27 -7.58,-3.16 -12.7,-6.76 -15.4,-10.9 -8.78,-53.49 -19.86,-106.97 -32.18,-160.45 -1.31,-5.1 -2.1,-9.83 -2.14,-14.32 -0.41,-18.66 10.49,-26.12 32.74,-22.42 13.04,2.17 25.36,12.02 37,29.54 z m -139.02,-85.05 c -14.65,11.07 -21.57,28.98 -20.92,53.74 0.28,12.2 2,24.01 5.12,35.43 24.09,105.43 43.43,210.87 49.9,316.31 29.54,9.25 58.97,18.51 88.3,27.76 -1.84,-47.35 -6.43,-94.7 -13.02,-142.04 11.06,8.86 20.16,15.03 27.39,18.54 7.22,3.47 14.55,5.87 21.96,7.15 48.33,8.28 76.84,-22.31 79.63,-91.7 1.03,-28.02 -3.98,-58.88 -15.14,-92.6 -11.2,-33.73 -30.15,-64.1 -56.68,-91.14 -26.49,-27.05 -60.47,-44.01 -101.68,-50.9 -28.59,-4.79 -50.23,-1.63 -64.86,9.45"
         style="fill:#353336;fill-opacity:1;fill-rule:nonzero;stroke:none"
         id="path38" /><path
         d="m 880.188,849.07 c -43.313,25.871 -66.407,66 -69.336,120.328 -1.836,33.862 4.89,66.572 20.136,98.132 15.254,31.57 36.875,58.19 64.93,79.92 28.008,21.76 59.289,35.79 93.809,42.08 35.453,6.41 64.593,3.14 87.433,-9.77 22.82,-12.97 35.01,-33.26 36.47,-60.85 1.16,-21.4 -3.05,-39.24 -12.63,-53.59 -8.99,9.18 -20.89,15.56 -35.67,19.17 -14.8,3.59 -30.13,3.92 -45.98,1.07 -28.002,-5.09 -50.373,-18.12 -67.104,-39.2 -16.797,-21.01 -24.383,-45.79 -22.851,-74.329 1.543,-28.48 11.386,-50.101 29.621,-64.769 18.203,-14.703 40.39,-19.653 66.514,-14.891 32.64,5.91 59.88,24.82 81.73,56.688 21.81,31.839 37.34,76.081 46.54,132.571 l 54.02,308.09 -5.57,-1.01 c -23.36,-38.42 -52.55,-69.8 -87.47,-94.15 -34.97,-24.36 -73.9,-40.44 -116.8,-48.23 -54.121,-9.84 -102.433,-4.65 -144.98,15.49 -42.539,20.14 -76.152,53.86 -100.801,101.13 -24.707,47.23 -38.867,104.71 -42.5,172.41 -5.304,98.03 12.293,191.41 52.715,280.2 40.418,88.79 98.555,163.44 174.434,224 75.882,60.57 160.892,99.42 255.122,116.56 79.28,14.4 142.92,9.32 190.86,-15.24 47.97,-24.58 73.47,-65.39 76.55,-122.38 2.05,-38.33 -6.08,-70.85 -24.43,-97.59 -18.32,-26.73 -43.39,-42.97 -75.09,-48.74 -17.72,-3.2 -34.44,-2.67 -50.23,1.67 -15.77,4.34 -29.16,12.24 -40.15,23.76 16.2,13.74 29.52,33.46 39.91,59.21 10.38,25.7 14.94,50.61 13.65,74.67 -1.44,26.72 -10.73,45.97 -27.84,57.68 -17.12,11.76 -40.63,14.91 -70.45,9.49 -54.11,-9.82 -105.11,-42.28 -153.01,-97.32 -47.89,-55.04 -85.275,-122.34 -112.072,-201.89 -26.785,-79.57 -37.988,-159.85 -33.633,-240.92 3.606,-66.83 17.539,-115.82 41.848,-146.93 24.265,-31.14 57.407,-42.86 99.387,-35.24 50.36,9.15 93.52,42.65 129.53,100.47 35.96,57.83 63.01,137.41 81.09,238.77 l 165.19,28.66 -77.94,-467.66 c -22.73,-138.14 -59.66,-243.37 -110.86,-315.668 -51.21,-72.281 -120.21,-116.32 -206.96,-132.082 -68.101,-12.379 -123.832,-5.629 -167.132,20.23"
         style="fill:#353336;fill-opacity:1;fill-rule:nonzero;stroke:none"
         id="path40" /><path
         d="m 880.188,849.07 18.472,30.942 c -17.035,10.238 -28.672,22.078 -37.066,36.539 -8.321,14.48 -13.52,32.179 -14.77,54.789 -0.16,3 -0.242,5.969 -0.242,8.922 0.039,24.528 5.438,47.898 16.848,71.598 12.937,26.68 30.695,48.57 54.554,67.11 l 0.036,0.03 c 23.707,18.35 49.183,29.76 78.164,35.09 l -0.043,-0.01 c 9.919,1.8 18.839,2.61 26.739,2.61 16.02,-0.04 27.46,-3.19 36.54,-8.29 l -0.06,0.04 c 6.8,-3.94 10.42,-7.71 13.15,-12.15 2.65,-4.48 4.63,-10.26 5.15,-19.29 0.09,-1.69 0.13,-3.3 0.13,-4.86 0,-6.43 -0.74,-11.68 -1.92,-15.99 -1.2,-4.32 -2.78,-7.73 -4.84,-10.83 l 29.97,-20 25.74,25.21 c -14.32,14.7 -32.99,24.17 -52.85,28.96 l -0.08,0.02 c -10.99,2.67 -22.26,4 -33.58,3.99 -9.09,0 -18.22,-0.84 -27.29,-2.49 h -0.03 c -17.652,-3.2 -34.406,-9.11 -49.504,-17.94 -15.101,-8.79 -28.422,-20.47 -39.383,-34.32 l 0.086,0.11 c -10.14,-12.66 -18.046,-26.86 -23.238,-42.06 -5.215,-15.19 -7.707,-31.28 -7.699,-47.652 0,-3 0.086,-6.019 0.25,-9.058 0.965,-17.86 4.609,-34.949 11.754,-50.59 7.09,-15.629 17.836,-29.57 31.254,-40.309 l -0.047,0.039 c 9.902,-8.019 21.14,-14.351 33.168,-18.5 12.019,-4.171 24.734,-6.152 37.499,-6.14 8.3,0.012 16.61,0.832 24.89,2.32 21.24,3.82 41.34,12.16 59.04,24.469 17.73,12.301 33.02,28.383 46,47.32 26.06,38.199 42.57,87.311 52.38,147.141 l -35.56,5.79 35.49,-6.22 54.02,308.09 c 2.04,11.63 -1.71,23.43 -10.07,31.76 -8.37,8.33 -20.19,12.01 -31.81,9.92 l -5.58,-1.01 c -10.13,-1.83 -19.04,-7.94 -24.39,-16.74 -20.99,-34.48 -46.58,-61.87 -77.29,-83.31 -30.78,-21.41 -64.53,-35.39 -102.631,-42.34 -15.801,-2.87 -30.746,-4.25 -44.887,-4.25 -29.035,0.03 -54.593,5.7 -78.246,16.86 -17.543,8.32 -33.019,19.25 -47,33.25 -13.957,14.01 -26.41,31.16 -37.261,51.97 l -0.024,0.04 c -21.746,41.54 -35.027,93.8 -38.445,157.64 -0.582,10.74 -0.871,21.38 -0.871,31.95 0.031,80.71 16.73,157.37 50.398,231.39 38.219,83.85 92.539,153.58 164.121,210.78 71.536,57.02 150.556,93.1 239.096,109.26 27.53,5.01 52.59,7.41 75.06,7.41 38.4,-0.01 68.91,-6.95 92.92,-19.26 19.11,-9.87 31.88,-21.62 40.99,-36.08 9.03,-14.49 14.69,-32.51 16.01,-56.18 0.17,-3.22 0.26,-6.38 0.26,-9.47 -0.01,-13.75 -1.69,-25.87 -4.79,-36.66 -3.1,-10.8 -7.59,-20.32 -13.63,-29.14 -6.78,-9.86 -14.13,-16.98 -22.42,-22.38 -8.32,-5.38 -17.76,-9.15 -29.41,-11.29 l 0.06,0.01 c -5.61,-1.01 -10.83,-1.48 -15.76,-1.48 -6.6,0.01 -12.67,0.83 -18.56,2.44 l 0.03,-0.01 c -10,2.84 -17.01,7.06 -23.62,13.88 l -26.08,-24.86 23.31,-27.48 c 21.8,18.53 38.04,43.55 50.01,73.21 10.7,26.48 16.49,53.42 16.48,80.17 0,3.31 -0.09,6.61 -0.27,9.9 -0.91,17.03 -4.4,33.32 -11.57,48.21 -7.1,14.86 -18.2,27.99 -31.9,37.29 l 0.06,-0.04 c -9.35,6.43 -19.81,11.13 -30.69,14.1 -10.9,2.98 -22.22,4.29 -33.78,4.29 -10.68,0 -21.61,-1.11 -32.85,-3.16 l 0.04,0.01 c -31.99,-5.79 -62.79,-18.31 -91.74,-36.75 -28.99,-18.45 -56.22,-42.73 -82.02,-72.37 -51.372,-59.02 -90.986,-130.73 -119.033,-214.04 -24.23,-71.93 -36.445,-144.91 -36.433,-218.44 0,-11.95 0.32,-23.93 0.965,-35.92 1.921,-35.43 6.566,-66.92 14.484,-94.79 7.934,-27.81 19.191,-52.18 34.949,-72.38 l -0.027,0.04 c 12.543,-16.14 28.035,-29.41 45.945,-38.26 17.88,-8.9 37.82,-13.15 58.09,-13.11 9.97,0 20.03,0.99 30.17,2.82 h 0.04 c 31.04,5.6 60.15,19.01 85.79,38.97 25.71,19.95 48.12,46.19 67.88,77.91 39.47,63.61 67.32,147.25 85.98,251.48 l -35.47,6.33 6.16,-35.5 115.14,19.98 -69.59,-417.55 -0.01,-0.08 c -11.09,-67.43 -25.59,-126.3 -43.2,-176.44 -17.6,-50.15 -38.31,-91.52 -61.51,-124.25 -23.21,-32.73 -49.79,-58.309 -80.14,-77.691 -30.36,-19.36 -64.63,-32.618 -103.86,-39.77 -20.22,-3.668 -38.83,-5.43 -55.81,-5.43 -35.547,0.051 -63.496,7.5 -86.41,21.153 L 880.188,849.07 861.711,818.141 c 35.652,-21.332 77.641,-31.391 123.359,-31.34 21.93,0.008 44.81,2.258 68.69,6.59 47.52,8.621 91.12,25.25 129.75,49.929 38.65,24.641 72.17,57.219 100.17,96.782 28,39.558 51.35,86.948 70.7,142.028 19.34,55.09 34.67,117.91 46.31,188.62 l -0.01,-0.08 77.94,467.66 c 1.91,11.53 -1.86,23.25 -10.15,31.48 -8.29,8.24 -20.04,11.94 -31.55,9.94 l -165.19,-28.66 c -14.9,-2.59 -26.65,-14.28 -29.31,-29.17 -17.5,-98.48 -43.74,-174.01 -76.22,-226.07 -16.23,-26.09 -33.4,-45.51 -50.87,-59.05 -17.53,-13.54 -35.19,-21.45 -54.5,-25 l 0.04,0.01 c -6.4,-1.16 -12.18,-1.68 -17.37,-1.68 -10.64,0.04 -18.76,2.03 -26.1,5.62 -7.3,3.65 -14.15,9.13 -21.099,17.99 l -0.031,0.04 c -8.547,10.91 -16.411,26.59 -22.422,47.75 -6.028,21.12 -10.153,47.53 -11.836,78.93 -0.574,10.7 -0.864,21.38 -0.864,32.04 0.012,65.57 10.813,130.5 32.665,195.44 25.547,75.79 60.697,138.69 105.107,189.74 22.1,25.4 44.32,44.87 66.33,58.87 22.05,14 43.8,22.62 65.93,26.65 h 0.04 c 7.61,1.39 14.27,2 19.91,2 6.11,0 10.97,-0.7 14.76,-1.74 3.8,-1.05 6.55,-2.38 8.91,-3.99 l 0.05,-0.04 c 3.41,-2.42 5.51,-4.77 7.7,-9.14 2.11,-4.35 3.99,-11.04 4.51,-20.74 0.11,-2 0.16,-4.02 0.16,-6.05 -0.01,-16.39 -3.48,-33.95 -11.24,-53.2 -8.82,-21.86 -19.2,-36.26 -29.8,-45.22 -7.55,-6.4 -12.15,-15.69 -12.67,-25.57 -0.53,-9.89 3.07,-19.6 9.9,-26.77 15.36,-16.22 35.13,-27.8 56.67,-33.64 l 0.03,-0.01 c 12.21,-3.35 24.86,-5 37.6,-5 9.49,0 19.03,0.91 28.55,2.63 l 0.06,0.01 c 20.05,3.63 38.99,10.86 55.71,21.73 16.75,10.84 31.1,25.21 42.64,42.08 10.45,15.22 18.33,32.09 23.47,50.02 5.14,17.93 7.58,36.88 7.57,56.53 0,4.41 -0.12,8.85 -0.36,13.33 -1.76,33.34 -10.38,64.22 -26.86,90.53 -16.4,26.34 -40.37,47.29 -69.23,62 -36.42,18.66 -78.82,27.19 -125.78,27.19 -27.59,-0.01 -56.87,-2.93 -87.95,-8.58 -99.94,-18.11 -190.936,-59.73 -271.159,-123.84 -80.18,-63.94 -142.129,-143.5 -184.746,-237.23 -37.816,-82.98 -56.906,-170.5 -56.875,-261.25 0,-11.88 0.324,-23.83 0.973,-35.82 3.843,-71.55 18.882,-134.25 46.55,-187.17 l -0.023,0.05 c 13.797,-26.47 30.477,-49.82 50.121,-69.53 19.629,-19.7 42.223,-35.7 67.215,-47.51 33.566,-15.92 70.434,-23.83 109.066,-23.79 18.832,0 38.106,1.84 57.778,5.42 47.69,8.63 91.79,26.8 130.94,54.11 39.15,27.26 71.94,62.62 97.66,105 l -30.78,18.71 6.39,-35.45 5.58,1.01 -6.4,35.45 -35.48,6.22 -54.03,-308.08 -0.07,-0.44 c -8.59,-53.15 -23.13,-92.522 -40.7,-117.99 -8.87,-12.93 -18.13,-22.239 -27.64,-28.848 -9.55,-6.582 -19.38,-10.66 -30.8,-12.762 -4.49,-0.82 -8.51,-1.172 -12.05,-1.172 -5.51,0.012 -9.937,0.801 -13.929,2.184 -3.988,1.387 -7.633,3.379 -11.473,6.457 l -0.05,0.043 c -4.813,3.93 -8.102,8.129 -10.879,14.098 -2.723,5.961 -4.77,13.922 -5.348,24.55 -0.098,1.758 -0.141,3.489 -0.141,5.168 0.008,9.192 1.344,17.09 3.805,24.302 2.485,7.21 6.102,13.83 11.352,20.41 l 0.086,0.11 c 5.765,7.24 11.996,12.61 19.261,16.87 7.266,4.24 15.706,7.38 26.056,9.27 h -0.03 c 5.05,0.91 9.84,1.34 14.47,1.34 5.74,-0.01 11.2,-0.66 16.62,-1.97 l -0.08,0.02 c 9.7,-2.43 14.84,-5.72 18.48,-9.38 7.56,-7.72 18.33,-11.67 29.1,-10.67 10.76,1.01 20.61,6.89 26.61,15.88 6.5,9.71 11.32,20.5 14.4,31.78 3.09,11.29 4.49,23.04 4.49,35.03 0,2.88 -0.08,5.78 -0.24,8.7 -0.95,18.53 -5.79,36.69 -15.31,52.51 -9.44,15.84 -23.32,28.7 -39.34,37.73 l -0.07,0.04 c -21.47,12.18 -46.22,17.67 -72.01,17.63 -12.83,0 -26.001,-1.31 -39.567,-3.76 l -0.043,-0.01 c -40.059,-7.25 -77.141,-23.91 -109.454,-49.07 l 0.036,0.03 c -32.25,-24.94 -57.739,-56.27 -75.305,-92.73 -15.817,-32.65 -24.059,-67.46 -24.02,-102.948 0,-4.274 0.118,-8.543 0.348,-12.813 1.684,-31.711 9.492,-61.238 24.281,-86.867 14.715,-25.652 36.282,-46.812 62.555,-62.441 l 18.477,30.929"
         style="fill:#353336;fill-opacity:1;fill-rule:nonzero;stroke:none"
         id="path42" /><path
         d="m 1546.32,1231.3 c -28.99,21.68 -44.89,59.33 -47.79,112.76 -1.19,22.26 0.96,51.88 6.53,88.89 l 113.58,696.83 205.69,64.32 -122.01,-750.93 c -3.01,-14.01 -4.1,-28.66 -3.28,-43.79 0.95,-17.82 6.07,-29.71 15.33,-35.68 9.25,-5.97 24.16,-7.07 44.67,-3.34 27.06,4.91 51.68,20.41 73.82,46.5 22.11,26.04 37.38,57.4 45.77,93.98 l 58.82,10.72 c -29.37,-102.53 -70.17,-175.85 -122.38,-219.98 -52.27,-44.12 -105.01,-71.01 -158.14,-80.67 -44.82,-8.14 -81.68,-1.37 -110.61,20.39"
         style="fill:#353336;fill-opacity:1;fill-rule:nonzero;stroke:none"
         id="path44" /><path
         d="m 1546.32,1231.3 21.57,28.86 c -8.92,6.74 -16.12,15.76 -22.08,29.66 -5.88,13.84 -10.04,32.55 -11.31,56.19 v -0.04 c -0.17,3.24 -0.26,6.78 -0.26,10.6 -0.02,17.84 2.03,41.78 6.45,71.02 l -35.63,5.36 35.56,-5.79 110,674.87 128.79,40.28 -112.66,-693.36 35.57,-5.78 -35.23,7.56 c -2.92,-13.58 -4.34,-27.52 -4.34,-41.65 0,-3.86 0.11,-7.75 0.32,-11.67 v 0.06 c 0.66,-11.9 2.63,-23.37 7.42,-34.6 2.4,-5.59 5.56,-11.1 9.64,-16.17 4.07,-5.07 9.09,-9.66 14.72,-13.28 6.87,-4.43 14.22,-7.23 21.42,-8.92 7.22,-1.68 14.36,-2.31 21.54,-2.32 9.03,0.01 18.12,1.02 27.65,2.73 18.22,3.29 35.67,10.25 51.54,20.27 15.91,10.03 30.29,23 43.33,38.36 26.1,30.7 43.94,67.78 53.42,109.24 l -35.12,8.06 6.46,-35.44 58.82,10.71 -6.46,35.45 -34.63,9.92 c -14.09,-49.21 -30.76,-90.66 -49.48,-124.29 -18.73,-33.67 -39.42,-59.42 -61.53,-78.09 -48.72,-41.1 -95.76,-64.46 -141.33,-72.74 -10.34,-1.88 -19.83,-2.75 -28.45,-2.75 -11.51,0.01 -21.45,1.53 -30.24,4.28 -8.8,2.77 -16.52,6.74 -23.82,12.21 l -0.08,0.06 -21.57,-28.86 -21.65,-28.79 c 13.73,-10.35 29.15,-18.24 45.58,-23.38 16.44,-5.15 33.84,-7.58 51.78,-7.57 13.45,0 27.23,1.34 41.33,3.9 60.71,11.04 119.16,41.47 174.95,88.6 30.12,25.46 55.93,58.43 78,98.09 22.07,39.69 40.49,86.16 55.78,139.48 3.41,11.93 0.39,24.92 -7.93,34.11 -8.33,9.19 -20.96,13.49 -33.16,11.26 l -58.82,-10.71 c -14.12,-2.57 -25.45,-13.4 -28.66,-27.38 -7.32,-31.71 -20.01,-57.34 -38.12,-78.73 -9.1,-10.72 -18.1,-18.55 -26.8,-24.03 -8.74,-5.48 -17.14,-8.71 -25.98,-10.33 -6.3,-1.15 -11.36,-1.59 -14.81,-1.58 -2.77,-0.01 -4.5,0.27 -5.1,0.42 l -0.24,0.06 -0.93,-2.96 1.29,2.81 -0.36,0.15 -0.93,-2.96 1.29,2.81 -3.6,-7.83 4.67,7.24 -1.07,0.59 -3.6,-7.83 4.67,7.24 -5.41,-8.36 7.78,6.26 c -0.48,0.61 -1.38,1.47 -2.39,2.11 l -5.39,-8.37 7.78,6.26 -3.18,-2.56 3.67,1.85 -0.49,0.71 -3.18,-2.56 3.67,1.85 c -0.1,0.04 -1.43,3.43 -1.74,10.12 v 0.05 c -0.14,2.62 -0.21,5.19 -0.21,7.74 0,9.3 0.93,18.13 2.73,26.52 l 0.34,1.79 122.01,750.94 c 2.01,12.36 -2.5,24.79 -11.96,33 -9.46,8.2 -22.41,10.9 -34.36,7.16 l -205.68,-64.32 c -13.05,-4.08 -22.6,-15.1 -24.81,-28.59 l -113.58,-696.83 -0.07,-0.43 c -4.75,-31.67 -7.23,-58.64 -7.25,-81.75 0,-4.98 0.12,-9.78 0.37,-14.42 v -0.05 c 1.64,-29.79 6.87,-56.61 16.91,-80.38 9.97,-23.7 25.22,-44.33 45.28,-59.27 l -0.07,0.06 21.65,28.79"
         style="fill:#353336;fill-opacity:1;fill-rule:nonzero;stroke:none"
         id="path46" /><path
         d="m 2210.81,1472.82 c 21.08,28.58 38.85,65.57 53.37,110.93 14.52,45.36 24.08,94.58 28.75,147.63 -25.47,0.76 -39.05,17.2 -40.77,49.27 -1.97,36.5 11.19,63.19 39.46,80.05 -3.44,29.03 -9.21,48.45 -17.25,58.28 -8.07,9.74 -21.44,12.97 -40.08,9.57 -30.79,-5.61 -59.51,-32.42 -86.1,-80.45 -26.63,-48.01 -47.18,-103.52 -61.68,-166.41 -14.52,-62.92 -20.54,-117.11 -18.08,-162.52 2.3,-42.78 8.95,-70.56 20.04,-83.41 11.02,-12.84 30.08,-16.81 57.14,-11.88 22.39,4.04 44.16,20.37 65.2,48.94 z m -281.12,-158.34 c -41.94,26.54 -64.88,76.34 -68.83,149.43 -3.28,60.57 6.21,130.17 28.31,208.91 22.12,78.69 60.65,150.26 115.62,214.68 54.91,64.41 126.2,104.58 213.89,120.52 119.43,21.7 182.97,-38.71 190.66,-181.26 l 0.07,-1.32 c 2.83,-0.43 7.97,0.06 15.45,1.42 30.77,5.59 65.82,19.83 105.08,42.72 39.26,22.86 74.63,48.46 106.12,76.64 l 14.5,-33.79 c -25.55,-32.52 -59.49,-62.33 -101.84,-89.35 -42.34,-27.06 -88.97,-49.24 -139.84,-66.58 -3.13,-82.45 -18.41,-156.77 -45.92,-222.92 -27.53,-66.21 -64.66,-120.2 -111.36,-161.97 -46.75,-41.8 -98.57,-67.85 -155.49,-78.18 -69.03,-12.56 -124.51,-5.57 -166.42,21.05"
         style="fill:#353336;fill-opacity:1;fill-rule:nonzero;stroke:none"
         id="path48" /><path
         d="m 2210.81,1472.82 29,-21.38 c 24.13,32.77 43.28,73.28 58.68,121.33 15.43,48.2 25.46,100.07 30.33,155.45 0.87,9.86 -2.39,19.7 -8.96,27.09 -6.57,7.4 -15.96,11.79 -25.85,12.08 -1.3,0.04 -2.2,0.17 -2.74,0.28 l -0.7,0.19 -0.55,-1.36 0.78,1.24 -0.23,0.12 -0.55,-1.36 0.78,1.24 -1.33,-2.11 1.93,1.61 -0.6,0.5 -1.33,-2.11 1.93,1.61 -0.35,0.58 c -0.77,1.34 -2.49,6.18 -2.91,14.76 -0.1,1.78 -0.15,3.47 -0.15,5.09 0.04,11.7 2.25,19.63 5.55,25.76 3.39,6.1 8.04,11.18 16.53,16.32 12.23,7.29 19.01,21.06 17.33,35.19 -1.91,15.93 -4.45,29.83 -8.14,42.33 -3.79,12.48 -8.39,23.8 -17.02,34.54 l -0.12,0.14 c -6.67,8.14 -15.73,14.7 -25.35,18.55 -9.64,3.92 -19.57,5.39 -29.15,5.39 -6.63,0 -13.22,-0.69 -19.85,-1.91 l 0.07,0.01 c -11.72,-2.12 -23.01,-6.27 -33.49,-11.99 -15.76,-8.6 -29.71,-20.57 -42.44,-35.06 -12.72,-14.52 -24.3,-31.64 -35.24,-51.39 l 0.02,0.03 c -28.53,-51.45 -50.16,-110.17 -65.28,-175.8 -12.86,-55.74 -19.53,-105.67 -19.55,-150.3 0,-7.57 0.2,-14.98 0.59,-22.26 1.25,-22.83 3.6,-42.34 7.67,-59.39 2.06,-8.53 4.55,-16.48 7.85,-24.05 3.31,-7.55 7.42,-14.81 13.22,-21.56 l -0.06,0.07 c 7.94,-9.32 18.49,-16.45 29.59,-20.63 11.14,-4.24 22.68,-5.84 34.24,-5.85 8.89,0 17.85,0.95 27.07,2.62 h -0.02 c 17.6,3.16 33.91,11.06 48.33,21.91 14.48,10.89 27.38,24.71 39.48,41.12 l -0.01,-0.02 -29,21.38 -29.01,21.37 c -8.94,-12.17 -17.45,-20.79 -24.71,-26.22 -7.32,-5.47 -13.09,-7.76 -17.88,-8.63 l -0.03,-0.01 c -5.78,-1.05 -10.58,-1.47 -14.22,-1.46 -4.8,-0.01 -7.52,0.71 -8.54,1.11 l -0.69,0.32 -0.23,-0.32 0.3,0.26 -0.07,0.06 -0.23,-0.32 0.3,0.26 -0.06,0.07 v 0.01 c -0.6,0.59 -3.76,6.72 -6.03,17.4 -2.39,10.67 -4.31,25.7 -5.31,44.39 -0.32,5.92 -0.48,12.03 -0.48,18.37 -0.02,37.37 5.72,82.27 17.7,134.11 13.86,60.17 33.35,112.46 58.08,157.03 l 0.02,0.03 c 11.98,21.71 23.95,37.42 34.54,47.26 5.29,4.94 10.18,8.44 14.56,10.82 4.4,2.39 8.24,3.7 11.92,4.37 l 0.07,0.02 c 2.95,0.54 5.25,0.72 6.81,0.71 1.11,0.01 1.81,-0.08 2.11,-0.14 l 0.18,-0.04 1.17,4.62 -2.46,-4 1.29,-0.62 1.17,4.62 -2.46,-4 4.28,6.95 -6.29,-5.21 2.01,-1.74 4.28,6.95 -6.29,-5.21 -0.12,0.14 1.82,1.49 -1.92,-1.36 0.1,-0.13 1.82,1.49 -1.92,-1.36 c 0.15,-0.08 2.3,-3.91 4.17,-10.81 1.94,-6.89 3.84,-16.73 5.29,-29.02 l 35.77,4.25 -18.44,30.95 c -17.95,-10.62 -33.12,-25.59 -42.96,-43.83 -9.92,-18.22 -14.32,-38.93 -14.28,-60.15 0,-2.98 0.08,-5.97 0.24,-8.97 0.57,-10.36 2.09,-20.33 5.14,-30.01 2.28,-7.25 5.46,-14.35 9.82,-20.97 6.46,-9.94 15.9,-18.61 26.76,-24.08 10.86,-5.54 22.59,-7.94 33.95,-8.27 l 1.08,36.01 -35.89,3.16 c -4.46,-50.71 -13.56,-97.28 -27.17,-139.8 -13.64,-42.67 -30.04,-76.15 -48.05,-100.53 l -0.02,-0.02 z m -281.12,-158.34 19.26,30.45 c -14.76,9.44 -26.09,22.33 -35.2,41.88 -9.01,19.49 -15.14,45.78 -16.91,79.04 -0.39,7.13 -0.59,14.41 -0.59,21.87 -0.01,50.57 9,109.14 27.61,175.37 20.73,73.63 56.54,140.28 108.33,201.03 24.89,29.16 53.03,52.44 84.94,70.43 31.91,17.97 67.69,30.69 107.99,38.02 13.95,2.54 26.61,3.73 37.92,3.73 18.67,-0.01 33.54,-3.15 45.66,-8.51 9.12,-4.05 16.84,-9.36 23.93,-16.43 10.55,-10.57 19.82,-25.53 26.99,-46.52 7.16,-20.92 12.01,-47.68 13.74,-80.02 v 0.08 l 0.07,-1.32 c 0.88,-17.06 13.74,-31.23 30.62,-33.77 3.12,-0.45 5.54,-0.54 7.74,-0.54 3.61,0 6.68,0.28 9.82,0.65 3.13,0.38 6.28,0.88 9.66,1.48 l 0.04,0.01 c 36.61,6.72 75.06,22.78 116.78,47.05 41.21,24 78.6,51.02 112,80.92 l -24.03,26.84 -33.11,-14.21 14.5,-33.78 33.11,14.2 -28.33,22.26 c -22.56,-28.72 -53.3,-55.98 -92.89,-81.24 l -0.02,-0.01 c -39.75,-25.41 -83.71,-46.35 -132.07,-62.84 -14.1,-4.81 -23.81,-17.85 -24.37,-32.74 -3,-78.85 -17.55,-148.78 -43.19,-210.45 -25.82,-62.04 -59.88,-111.15 -102.11,-148.94 -42.51,-37.91 -87.74,-60.41 -137.9,-69.59 -20.35,-3.7 -38.98,-5.47 -55.85,-5.46 -17.84,0 -33.68,1.96 -47.69,5.61 -14.02,3.65 -26.22,8.94 -37.14,15.87 l -0.05,0.03 -19.26,-30.45 -19.31,-30.41 c 17.53,-11.14 36.92,-19.4 57.62,-24.78 20.71,-5.38 42.71,-7.93 65.83,-7.93 21.87,0 44.76,2.27 68.73,6.63 63.66,11.47 122.08,41.07 173.06,86.77 51.17,45.74 91.37,104.61 120.61,174.99 29.38,70.63 45.39,149.33 48.65,235.38 l -36,1.37 11.62,-34.1 c 53.38,18.2 102.69,41.6 147.62,70.32 l -0.02,-0.01 c 45.1,28.78 82.25,61.15 110.79,97.47 8.16,10.39 9.99,24.32 4.78,36.47 l -14.51,33.78 c -4.56,10.63 -14.04,18.48 -25.33,20.97 -11.28,2.5 -23.19,-0.62 -31.8,-8.33 -29.57,-26.47 -62.93,-50.64 -100.22,-72.35 -36.81,-21.52 -68.48,-33.94 -93.39,-38.42 l 0.04,0.01 c -2.35,-0.42 -4.23,-0.7 -5.46,-0.85 l -1.29,-0.13 -0.16,-0.01 0.24,-6.09 v 6.09 h -0.24 l 0.24,-6.09 v 6.09 -19.99 l 2.97,19.74 c -1.79,0.26 -2.62,0.24 -2.97,0.25 v -19.99 l 2.97,19.74 -5.35,-35.63 35.98,1.87 -0.07,1.32 -0.01,0.07 c -1.79,33.13 -6.4,62.92 -14.35,89.57 -5.97,19.98 -13.85,38.21 -24,54.46 -15.14,24.35 -35.82,44.12 -60.68,56.92 -24.85,12.88 -53.16,18.73 -83.24,18.7 -16.32,0 -33.23,-1.69 -50.8,-4.88 -47.39,-8.6 -91.1,-23.94 -130.49,-46.14 -39.38,-22.18 -74.34,-51.2 -104.38,-86.45 -58.14,-68.09 -99.38,-144.59 -122.88,-228.3 -19.92,-71.01 -30.27,-135.79 -30.29,-194.86 0,-8.71 0.23,-17.3 0.69,-25.76 2.17,-39.81 9.48,-74.97 23.41,-105.29 13.83,-30.26 34.94,-55.54 62.13,-72.63 l -0.05,0.03 19.31,30.41"
         style="fill:#353336;fill-opacity:1;fill-rule:nonzero;stroke:none"
         id="path50" /><path
         d="m 2883.84,1477.78 c -28.14,24.09 -43.35,57.55 -45.66,100.28 -1.02,18.73 0.15,40.35 3.55,64.76 3.4,24.48 7.03,48.33 10.97,71.52 3.9,23.19 6.67,38.09 8.19,44.69 5.78,32.51 11.12,64.54 16.03,96 4.9,31.49 6.84,56.63 5.84,75.3 -2.43,45.47 -20.46,65.15 -54.07,59.03 -24.26,-4.39 -45.08,-19.68 -62.52,-45.79 -17.44,-26.12 -30.76,-58.47 -39.97,-97.01 l -72.04,-446.34 -201.51,-36.6 153.92,945.71 205.66,64.35 -57.41,-350.53 c 43.97,58.39 97.17,93.25 159.69,104.62 47.55,8.63 86.05,3 115.37,-16.84 29.33,-19.89 45.35,-55.2 48.08,-106 1.39,-25.85 -0.33,-55.15 -5.15,-87.95 -4.83,-32.85 -12.06,-73.05 -21.74,-120.71 -6,-28.97 -11.3,-57.15 -15.93,-84.55 -4.67,-27.35 -6.58,-48.64 -5.75,-63.78 0.96,-17.82 5.9,-30.88 14.82,-39.16 8.94,-8.28 23.65,-10.53 44.16,-6.8 28,5.08 49.86,18.73 65.62,40.93 15.78,22.23 30.97,54.9 45.57,98.03 l 58.75,10.67 c -29.23,-104.26 -65.53,-177.22 -108.96,-218.85 -43.45,-41.62 -89.45,-66.84 -137.94,-75.68 -56.91,-10.33 -99.41,-3.45 -127.57,20.7"
         style="fill:#353336;fill-opacity:1;fill-rule:nonzero;stroke:none"
         id="path52" /><path
         d="m 2883.84,1477.78 23.43,27.37 c -10.23,8.8 -17.63,18.65 -23.16,30.7 -5.48,12.05 -9,26.52 -9.96,44.16 -0.2,3.66 -0.3,7.5 -0.3,11.53 -0.01,13.41 1.13,28.92 3.56,46.31 3.36,24.19 6.94,47.68 10.81,70.46 v 0.05 c 1.94,11.46 3.58,20.84 4.9,28.03 1.31,7.16 2.35,12.3 2.87,14.53 l 0.37,1.8 c 5.83,32.76 11.21,65.04 16.15,96.77 4.25,27.35 6.51,50.63 6.53,70.73 0,4.16 -0.1,8.16 -0.31,12.02 -0.64,12 -2.19,23.2 -5.09,33.87 -2.18,7.99 -5.15,15.72 -9.28,23.04 -6.11,10.94 -15.32,21.08 -26.99,27.75 -11.62,6.75 -24.88,9.63 -37.36,9.58 -5.98,0 -11.93,-0.6 -17.84,-1.69 l 0.12,0.02 c -17.6,-3.14 -34.29,-10.52 -48.72,-21.14 -14.48,-10.62 -26.78,-24.26 -37.36,-40.1 -20.37,-30.52 -35.07,-66.92 -45.05,-108.64 l -0.53,-2.63 -67.98,-421.18 -126.25,-22.94 142.16,873.41 128.67,40.26 -47.97,-292.88 c -2.67,-16.32 6.19,-32.45 21.4,-38.95 15.2,-6.5 32.99,-1.75 42.93,11.45 19.88,26.38 41.18,46.62 63.86,61.48 22.72,14.86 46.86,24.5 73.51,29.37 12.56,2.28 24,3.35 34.26,3.34 11.83,0 22.09,-1.39 31.01,-3.87 8.93,-2.49 16.55,-6.03 23.46,-10.69 l -0.03,0.02 c 8.9,-6.13 15.68,-14.02 21.42,-26.48 5.66,-12.4 9.73,-29.53 10.9,-51.64 0.28,-5.09 0.42,-10.39 0.42,-15.9 0,-19.16 -1.7,-40.83 -5.23,-64.9 -4.7,-31.9 -11.81,-71.55 -21.41,-118.75 l 0.03,0.12 c -6.09,-29.38 -11.47,-57.99 -16.18,-85.85 l 0.01,0.06 c -4.15,-24.48 -6.42,-44.88 -6.45,-62.55 0,-3.15 0.07,-6.23 0.24,-9.28 v 0.04 c 0.65,-11.73 2.6,-23.05 6.71,-33.95 4.07,-10.85 10.57,-21.34 19.59,-29.67 7.26,-6.76 16.03,-11.53 24.81,-14.31 8.81,-2.81 17.63,-3.83 26.36,-3.84 7.94,0 15.83,0.86 23.89,2.31 l 0.03,0.01 c 17.94,3.24 34.94,9.48 50.04,18.92 15.11,9.4 28.14,21.93 38.53,36.61 18.99,26.9 34.98,62.22 50.32,107.32 l -34.13,11.55 6.44,-35.45 58.75,10.68 -6.44,35.44 -34.69,9.73 c -14.15,-50.5 -29.88,-92.79 -46.72,-126.59 -16.81,-33.82 -34.74,-59.02 -52.49,-75.99 -39.65,-37.88 -79.06,-58.82 -119.46,-66.23 h 0.02 c -15.31,-2.78 -28.99,-4.07 -40.9,-4.07 -13.9,0 -25.34,1.75 -34.54,4.66 -9.23,2.94 -16.25,6.9 -22.24,12.01 l -0.02,0.02 -23.43,-27.37 -23.45,-27.36 c 13.72,-11.78 29.92,-20.5 47.44,-26.01 17.54,-5.53 36.36,-8 56.24,-8 17.06,0 34.94,1.81 53.77,5.22 l 0.03,0.01 c 56.59,10.27 109.17,39.76 156.4,85.1 25.69,24.67 47.63,56.78 67.14,95.9 19.48,39.16 36.51,85.48 51.59,139.25 3.35,11.94 0.3,24.81 -8.05,33.98 -8.35,9.17 -20.87,13.41 -33.08,11.19 l -58.75,-10.67 c -12.89,-2.34 -23.48,-11.48 -27.68,-23.89 -13.86,-41.16 -28.27,-71.19 -40.83,-88.73 -5.37,-7.53 -11.15,-12.94 -17.91,-17.18 -6.77,-4.2 -14.7,-7.32 -24.76,-9.15 h 0.03 c -4.73,-0.86 -8.49,-1.17 -11.09,-1.17 -2.9,-0.01 -4.34,0.39 -4.41,0.42 l -0.49,-1.52 0.63,1.46 -0.14,0.06 -0.49,-1.52 0.63,1.46 -2.99,-6.91 5.08,5.49 -2.09,1.42 -2.99,-6.91 5.08,5.49 -0.22,0.31 c -0.6,0.78 -2.65,5.14 -3.12,14.38 v 0.03 c -0.09,1.55 -0.13,3.32 -0.13,5.3 -0.03,11.19 1.65,28.48 5.42,50.43 l 0.01,0.06 c 4.55,26.95 9.78,54.69 15.69,83.25 l 0.02,0.13 c 9.78,48.11 17.12,88.87 22.09,122.63 3.94,26.92 5.99,51.98 5.99,75.37 0,6.73 -0.17,13.31 -0.51,19.76 -1.57,28.7 -6.87,54.62 -17.24,77.55 -10.28,22.86 -26.16,42.57 -46.59,56.34 l -0.03,0.02 c -13.54,9.17 -28.59,16.02 -44.55,20.44 -15.97,4.44 -32.82,6.51 -50.31,6.51 -15.2,0 -30.91,-1.56 -47.15,-4.5 -35.88,-6.5 -69.6,-19.98 -100.1,-39.99 -30.54,-20 -57.83,-46.4 -81.93,-78.41 l 28.78,-21.67 35.55,-5.83 57.41,350.53 c 2.03,12.36 -2.48,24.82 -11.93,33.03 -9.46,8.21 -22.43,10.92 -34.38,7.18 l -205.66,-64.35 c -13.05,-4.08 -22.6,-15.09 -24.8,-28.59 L 2417.09,1369.4 c -1.88,-11.53 1.98,-23.31 10.32,-31.49 8.33,-8.19 20.18,-11.83 31.68,-9.74 l 201.51,36.6 c 14.98,2.72 26.7,14.67 29.13,29.71 l 72.04,446.34 -35.57,5.74 35.04,-8.38 c 8.44,35.37 20.38,63.68 34.89,85.38 6.86,10.28 13.68,17.34 20.04,21.99 6.41,4.65 12.26,7.11 18.93,8.36 l 0.12,0.02 c 2.07,0.38 3.66,0.5 4.79,0.49 1.01,0 1.56,-0.09 1.75,-0.13 l 0.07,-0.02 0.84,2.55 -1.79,-1.98 0.95,-0.57 0.84,2.55 -1.79,-1.98 0.43,0.48 -0.47,-0.45 0.04,-0.03 0.43,0.48 -0.47,-0.45 c 0.02,0 1.32,-1.45 2.73,-5.84 1.4,-4.33 2.73,-11.32 3.21,-20.61 0.13,-2.49 0.2,-5.23 0.2,-8.2 0.02,-14.52 -1.77,-34.75 -5.66,-59.64 -4.87,-31.21 -10.16,-62.98 -15.9,-95.25 l 35.47,-6.3 -35.1,8.11 c -1.01,-4.37 -2.11,-9.97 -3.54,-17.72 -1.41,-7.7 -3.11,-17.37 -5.08,-29.1 l 0.01,0.05 c -4.01,-23.61 -7.69,-47.81 -11.14,-72.59 -2.79,-20.09 -4.24,-38.8 -4.25,-56.24 0,-5.26 0.14,-10.41 0.41,-15.43 1.35,-25.08 6.59,-48.71 16.33,-70.1 9.69,-21.38 23.96,-40.31 41.88,-55.6 l -0.02,0.01 23.45,27.36"
         style="fill:#353336;fill-opacity:1;fill-rule:nonzero;stroke:none"
         id="path54" /><path
         d="m 3532.31,1714.37 c 21.74,25.09 35.81,56.68 42.28,94.73 l 50.83,314.27 c -0.58,11.55 -5.89,22.05 -15.79,31.53 -9.97,9.43 -24.72,12.41 -44.27,8.83 -37.33,-6.77 -69.78,-33.62 -97.44,-80.46 -27.61,-46.83 -48.25,-101.02 -61.87,-162.42 -13.63,-61.42 -19.29,-114.41 -16.88,-158.92 2.4,-44.58 10.69,-71.87 24.87,-81.88 14.2,-10.01 31.11,-13.23 50.71,-9.66 23.3,4.22 45.86,18.9 67.56,43.98 z m -287.27,-162.18 c -37.31,28.29 -57.99,79.39 -61.95,153.37 -3.57,65.94 6.48,137.69 30.08,215.34 23.59,77.58 61.33,146.53 113.17,206.8 51.88,60.26 115.58,97.24 191.12,110.98 38.27,6.96 67.05,5.91 86.38,-3.19 19.34,-9.06 29.55,-23.88 30.65,-44.34 l 0.53,-9.39 11.57,73.65 201.47,36.63 -76.24,-472.72 c -3.01,-14.03 -4.12,-28.65 -3.27,-43.79 2.07,-38.32 22.18,-53.99 60.46,-47.03 26.12,4.73 48.12,20.39 66,47.08 17.82,26.63 31.37,59.68 40.59,99.13 l 58.76,10.67 c -29.35,-102.5 -68.49,-175.5 -117.49,-219.04 -49.01,-43.53 -99.16,-69.99 -150.47,-79.31 -39.15,-7.1 -71.21,-2.37 -96.13,14.23 -24.92,16.63 -40.79,44.57 -47.6,83.79 -25.15,-41.46 -53.6,-76.54 -85.46,-105.26 -31.92,-28.76 -70.73,-47.24 -116.41,-55.57 -53.18,-9.68 -98.43,-0.36 -135.76,27.97"
         style="fill:#353336;fill-opacity:1;fill-rule:nonzero;stroke:none"
         id="path56" /><path
         d="m 3532.31,1714.37 27.22,-23.6 c 26.62,30.63 43.29,69.05 50.58,112.29 l 0.05,0.29 50.83,314.27 c 0.41,2.58 0.55,4.98 0.41,7.58 -0.51,10.72 -3.4,21.41 -8.18,30.88 -4.77,9.49 -11.26,17.75 -18.67,24.85 l -0.17,0.16 c -7.3,6.93 -16.22,12.27 -25.56,15.52 -9.36,3.29 -19.01,4.62 -28.5,4.62 -7.14,0 -14.28,-0.74 -21.49,-2.06 l 0.1,0.01 c -25.16,-4.51 -48.63,-16.09 -68.86,-32.88 -20.32,-16.81 -37.74,-38.6 -53.17,-64.71 l -0.02,-0.02 c -29.79,-50.55 -51.69,-108.39 -66.01,-172.91 -11.99,-54.14 -18.25,-102.69 -18.27,-146.2 0,-7.64 0.19,-15.14 0.6,-22.5 1.33,-24.11 4.12,-44.49 9.51,-62.4 2.74,-8.97 6.15,-17.38 10.94,-25.36 4.78,-7.92 11.09,-15.55 19.63,-21.59 16.36,-11.69 36.58,-17.79 56.56,-17.65 7.15,0 14.27,0.7 21.33,1.98 16.88,3.05 32.94,9.86 47.61,19.42 14.71,9.59 28.16,21.87 40.77,36.44 l -0.02,-0.03 -27.22,23.6 -27.25,23.57 c -9.08,-10.51 -17.76,-18.1 -25.59,-23.18 -7.85,-5.1 -14.72,-7.74 -21.14,-8.91 -3.26,-0.6 -6.08,-0.83 -8.49,-0.83 -6.82,0.13 -10.46,1.41 -15.04,4.48 l -3.71,-5.28 4.86,4.31 -1.14,0.96 -3.72,-5.27 4.86,4.31 -0.08,0.1 c -0.64,0.68 -3.54,5.98 -5.72,15.51 -2.28,9.49 -4.11,22.95 -5,39.73 -0.33,5.98 -0.49,12.17 -0.49,18.59 -0.02,36.52 5.38,80.24 16.56,130.59 12.93,58.27 32.32,108.81 57.74,151.93 l -0.02,-0.02 c 12.23,20.72 24.86,35.77 37.02,45.79 12.24,10.04 23.66,15.27 35.84,17.54 l 0.09,0.01 c 3.48,0.65 6.31,0.87 8.43,0.87 2.8,0 4.18,-0.39 4.6,-0.54 l 0.18,-0.07 0.24,0.51 -0.31,-0.46 0.07,-0.05 0.24,0.51 -0.31,-0.46 0.65,0.96 -0.8,-0.85 0.15,-0.11 0.65,0.96 -0.8,-0.85 -0.17,0.16 c 2.49,-2.38 3.6,-4.11 4.11,-5.13 0.49,-1.04 0.55,-1.37 0.62,-2.2 l 35.98,1.82 -35.56,5.76 -50.83,-314.27 0.04,0.29 c -5.65,-32.88 -17.11,-57.64 -33.99,-77.18 l -0.02,-0.03 z m -287.27,-162.18 21.77,28.71 c -12.78,9.75 -23.4,23.58 -31.85,44.34 -8.39,20.68 -14.09,48.14 -15.9,82.25 -0.43,8 -0.65,16.09 -0.65,24.28 0,54.41 9.55,113.94 29.23,178.65 22.23,73.02 57.42,137.25 106.01,193.78 23.57,27.36 49.31,48.92 77.47,65.28 28.18,16.35 58.86,27.57 92.79,33.76 14.98,2.73 27.77,3.96 38.02,3.95 13.44,0.04 22.22,-2.18 26.54,-4.28 l 0.08,-0.04 c 5.1,-2.44 6.81,-4.36 7.81,-5.75 0.93,-1.45 1.83,-3.11 2.16,-7.9 v -0.08 l 0.53,-9.4 c 1.03,-18.34 15.82,-33.05 34.17,-33.96 18.35,-0.92 34.54,12.24 37.39,30.39 l 7.6,48.37 126.17,22.94 -68.13,-422.42 35.57,-5.74 -35.23,7.55 c -2.9,-13.51 -4.35,-27.41 -4.35,-41.55 0,-3.9 0.11,-7.85 0.34,-11.85 l -0.01,0.12 c 0.58,-10.65 2.23,-20.91 5.58,-30.88 2.52,-7.45 6.05,-14.73 10.84,-21.42 7.13,-10.06 17.36,-18.45 28.67,-23.43 11.34,-5.07 23.3,-6.99 34.99,-6.99 7.6,0 15.15,0.8 22.77,2.18 18.19,3.25 35.51,10.62 50.59,21.42 15.13,10.78 28.02,24.76 38.93,41.06 20.81,31.11 35.75,68.29 45.74,110.98 l -35.08,8.2 6.44,-35.45 58.76,10.68 -6.44,35.44 -34.64,9.92 c -14.12,-49.35 -30.45,-90.91 -48.49,-124.52 -18.03,-33.65 -37.72,-59.24 -58.29,-77.5 -45.41,-40.3 -89.54,-62.9 -132.98,-70.8 -9.88,-1.79 -18.85,-2.61 -26.88,-2.61 -9.37,0 -17.42,1.11 -24.4,3.05 -6.99,1.95 -12.96,4.68 -18.45,8.33 l 0.04,-0.02 c -7.6,5.12 -13.76,11.66 -19.26,21.25 -5.45,9.57 -10,22.33 -12.85,38.74 -2.57,14.79 -14.06,26.45 -28.81,29.24 -14.75,2.78 -29.7,-3.89 -37.49,-16.72 -23.58,-38.88 -49.83,-71.1 -78.77,-97.19 -26.83,-24.07 -58.75,-39.5 -98.75,-46.88 -11.61,-2.11 -22.47,-3.11 -32.62,-3.11 -14.87,0 -28.17,2.11 -40.44,6.12 -12.26,4.03 -23.58,9.97 -34.46,18.21 l -21.78,-28.7 -21.78,-28.7 c 16.93,-12.86 35.64,-22.76 55.6,-29.28 19.96,-6.55 41.09,-9.72 62.86,-9.71 14.87,0 30.06,1.46 45.53,4.28 51.37,9.28 97.08,30.8 134.08,64.24 34.79,31.36 65.43,69.29 92.14,113.35 l -30.8,18.68 -35.5,-6.17 c 3.97,-22.81 10.76,-43.62 21.18,-61.99 10.37,-18.33 24.6,-34.08 41.91,-45.59 l 0.04,-0.02 c 11.95,-7.97 25.18,-13.94 39.13,-17.8 13.95,-3.87 28.59,-5.67 43.65,-5.67 12.91,0.01 26.15,1.31 39.74,3.77 59.2,10.74 115.37,41.05 167.98,87.83 28.42,25.27 52.81,57.95 73.93,97.31 21.12,39.4 39.04,85.6 54.26,138.75 3.42,11.93 0.4,24.9 -7.93,34.1 -8.32,9.19 -20.94,13.48 -33.14,11.26 l -58.76,-10.67 c -14.12,-2.56 -25.38,-13.28 -28.65,-27.25 -8.45,-36.21 -20.59,-65.13 -35.44,-87.29 -6.96,-10.38 -14.01,-17.58 -20.89,-22.48 -6.92,-4.89 -13.66,-7.72 -21.59,-9.19 -4.14,-0.75 -7.5,-1.03 -9.94,-1.03 -3.43,0 -5.07,0.52 -5.45,0.66 l -0.12,0.06 -0.72,-1.51 1.16,1.17 -0.44,0.34 -0.72,-1.51 1.16,1.17 -0.53,-0.53 0.59,0.46 -0.06,0.07 -0.53,-0.53 0.59,0.46 c -0.02,0.04 -0.62,0.8 -1.34,3.1 -0.71,2.26 -1.45,6 -1.72,11.14 l -0.01,0.13 c -0.14,2.59 -0.21,5.16 -0.21,7.72 0,9.21 0.93,17.99 2.75,26.45 l 0.34,1.81 76.24,472.72 c 1.86,11.54 -2.01,23.28 -10.35,31.47 -8.34,8.17 -20.17,11.8 -31.67,9.71 l -201.46,-36.62 c -15.1,-2.74 -26.77,-14.7 -29.15,-29.85 l -11.57,-73.66 35.59,-5.59 35.97,2.02 -0.53,9.4 0.01,-0.08 c -0.77,15.66 -5.54,31.64 -14.83,44.98 -9.21,13.4 -22.27,23.42 -36.51,30.03 l 0.08,-0.03 c -17.57,8.21 -36.72,11.13 -57.28,11.17 -15.83,-0.01 -32.68,-1.81 -50.91,-5.12 -41.62,-7.55 -80.56,-21.69 -116.09,-42.34 -35.53,-20.62 -67.59,-47.69 -95.89,-80.58 -55.1,-64.01 -95.4,-137.69 -120.34,-219.83 -21.35,-70.23 -32.34,-136.76 -32.34,-199.61 0,-9.48 0.25,-18.86 0.75,-28.16 2.16,-39.85 8.77,-74.93 21.04,-105.36 12.21,-30.36 30.59,-56.22 55.12,-74.77 l 21.77,28.71"
         style="fill:#353336;fill-opacity:1;fill-rule:nonzero;stroke:none"
         id="path58" /><path
         d="m 3979.63,1672.86 c -31.74,20.79 -49.06,57.42 -51.85,110.01 -1.18,21.39 0.06,43.2 3.53,65.42 l 76.24,472.75 201.47,36.6 -76.2,-472.72 c -3.49,-23.15 -4.94,-39.58 -4.4,-49.39 1.56,-29.4 18.19,-41.21 49.95,-35.44 42.85,7.79 81.38,40.88 115.44,99.25 34.02,58.38 60.37,125.24 78.96,200.6 18.52,75.36 26.36,138.86 23.6,190.52 -1.65,-4.8 -7.5,-9.26 -17.65,-13.32 -10.16,-4.12 -18.93,-6.8 -26.39,-8.16 -15.9,-2.88 -28.64,1.98 -38.24,14.62 -9.65,12.66 -14.88,27.45 -15.83,44.38 -1.13,21.37 5.15,40.06 18.87,56.05 13.72,15.98 35.09,26.65 63.97,31.89 30.82,5.61 53.77,-1.25 68.94,-20.54 15.22,-19.3 23.67,-45.86 25.52,-79.7 4.3,-80.18 -5.53,-168.62 -29.48,-265.17 -24.07,-96.62 -64.14,-182.38 -120.41,-257.37 -56.22,-74.99 -128.7,-120.56 -217.27,-136.66 -54.12,-9.84 -97.03,-4.42 -128.77,16.38"
         style="fill:#353336;fill-opacity:1;fill-rule:nonzero;stroke:none"
         id="path60" /><path
         d="m 3979.63,1672.86 19.74,30.14 c -10.19,6.77 -17.71,15.32 -23.94,28.32 -6.13,12.95 -10.48,30.63 -11.68,53.47 v 0.06 c -0.25,4.58 -0.38,9.2 -0.38,13.84 0,14.31 1.18,28.98 3.54,44.04 l -0.03,-0.17 72.18,447.58 126.28,22.95 -68.09,-422.43 -0.05,-0.35 c -3.14,-21.02 -4.88,-36.98 -4.92,-50.43 0,-2.11 0.05,-4.22 0.17,-6.39 l -0.01,0.13 c 0.48,-8.85 1.91,-17.63 5,-26.32 2.31,-6.49 5.61,-12.93 10.08,-18.79 6.64,-8.85 16.07,-16.01 26.1,-20.14 10.05,-4.21 20.37,-5.72 30.33,-5.73 7.01,0.01 13.89,0.75 20.81,1.99 l 0.06,0.02 c 28.48,5.13 54.94,18.84 78.05,38.78 23.2,19.97 43.53,46.05 62.06,77.75 35.99,61.75 63.53,131.91 82.81,210.14 l 0.01,0.03 c 16.58,67.52 25.16,126.67 25.19,178.33 0,7.74 -0.2,15.31 -0.59,22.69 -0.92,17.27 -13.87,31.38 -30.99,33.77 -17.13,2.4 -33.45,-7.62 -39.07,-23.97 l 23.02,-7.91 -18.94,15.37 c -1.28,-1.56 -2.91,-4.07 -4.08,-7.46 l 23.02,-7.91 -18.94,15.37 13.14,-10.67 -10.9,12.99 c -0.49,-0.41 -1.27,-1.13 -2.24,-2.32 l 13.14,-10.67 -10.9,12.99 4.53,-5.4 -3.93,5.86 -0.6,-0.46 4.53,-5.4 -3.93,5.86 -0.2,-0.11 c -0.46,-0.28 -1.74,-0.94 -3.68,-1.71 l -0.14,-0.06 c -8.52,-3.47 -15.18,-5.37 -19.31,-6.1 h 0.03 c -1.03,-0.18 -1.72,-0.22 -2.13,-0.22 l -0.38,0.01 -0.01,-0.05 0.01,0.05 v 0 l -0.01,-0.05 0.01,0.05 -0.45,-2.04 1.18,1.74 -0.73,0.3 -0.45,-2.04 1.18,1.74 -0.3,0.26 -1.05,1.21 -0.04,0.06 c -5.12,6.91 -7.78,13.77 -8.5,24.55 v -0.11 c -0.05,1.02 -0.08,2 -0.08,2.94 0.01,5.77 0.9,10.44 2.5,14.8 1.62,4.34 4.01,8.49 7.81,12.93 3.41,3.96 8.05,7.7 15.04,11.2 6.96,3.49 16.26,6.58 28.02,8.71 5.11,0.94 9.51,1.32 13.17,1.32 6.37,-0.02 10.39,-1.08 13.27,-2.38 2.89,-1.36 5.05,-2.95 7.74,-6.3 l 0.04,-0.04 c 4.62,-5.87 8.61,-13.28 11.75,-23.06 3.12,-9.76 5.3,-21.84 6.08,-36.3 v 0.04 c 0.62,-11.53 0.93,-23.26 0.93,-35.2 0,-66.63 -9.67,-139.81 -29.4,-219.37 l 0.01,0.04 c -23.03,-92.38 -61.02,-173.45 -114.27,-244.46 -25.78,-34.37 -54.65,-61.26 -86.86,-81.54 -32.24,-20.25 -67.92,-33.98 -108.04,-41.29 -15.61,-2.84 -29.75,-4.17 -42.33,-4.17 -13.26,0 -24.76,1.47 -34.66,4.09 -9.91,2.62 -18.24,6.35 -25.58,11.15 l -19.75,-30.14 -19.75,-30.13 c 14.18,-9.29 29.94,-16.14 46.68,-20.55 16.77,-4.43 34.5,-6.47 53.06,-6.48 17.61,0.01 36,1.84 55.22,5.33 48.47,8.79 93.31,25.89 133.51,51.2 40.22,25.28 75.7,58.66 106.14,99.3 59.28,78.95 101.45,169.41 126.55,270.27 v 0.04 c 20.89,84.21 31.52,163.11 31.53,236.71 0,13.18 -0.35,26.21 -1.04,39.06 v 0.03 c -1.06,19.39 -4.03,37.5 -9.4,54.31 -5.36,16.79 -13.2,32.31 -23.8,45.73 l 0.04,-0.04 c -9.07,11.61 -21,21.24 -34.56,27.36 -13.55,6.18 -28.33,8.86 -43.11,8.84 -8.61,0 -17.29,-0.88 -26.06,-2.47 -17.1,-3.12 -32.92,-7.97 -47.29,-15.13 -14.34,-7.13 -27.25,-16.72 -37.56,-28.75 -8.88,-10.32 -15.99,-22.09 -20.69,-34.81 -4.73,-12.71 -7.01,-26.25 -7,-39.85 0,-2.26 0.07,-4.51 0.19,-6.76 v -0.1 c 1.17,-23.09 8.96,-45.8 23.15,-64.22 l -0.04,0.05 c 6.55,-8.65 15.09,-16.42 25.37,-21.74 10.24,-5.37 21.9,-7.96 33.01,-7.91 5.08,0 10.08,0.49 14.96,1.38 h 0.04 c 10.78,1.98 21.66,5.45 33.48,10.22 l -0.15,-0.05 c 7.07,2.86 13.69,6.1 20.36,11.09 3.32,2.52 6.67,5.53 9.84,9.42 3.16,3.89 6.14,8.75 8.13,14.55 l -34.07,11.7 -35.98,-1.91 c 0.32,-6.06 0.49,-12.35 0.49,-18.87 0.02,-43.57 -7.46,-97.58 -23.1,-161.14 l 0.01,0.03 c -17.88,-72.49 -43.04,-136.07 -75.11,-191.09 -15.52,-26.65 -31.49,-46.3 -46.78,-59.41 -15.38,-13.15 -29.61,-19.87 -43.98,-22.53 l 0.06,0.01 c -3.52,-0.64 -6.25,-0.85 -8.03,-0.85 -1.15,0 -1.94,0.08 -2.37,0.15 l -0.36,0.07 -0.02,-0.08 0.03,0.07 -0.01,0.01 -0.02,-0.08 0.03,0.07 -2.07,-6.38 4.05,5.26 -1.98,1.12 -2.07,-6.38 4.05,5.26 -5.35,-6.93 7.02,5.25 -1.67,1.68 -5.35,-6.93 7.02,5.25 -3.84,-2.87 4.32,2.11 -0.48,0.76 -3.84,-2.87 4.32,2.11 -0.04,-0.01 0.04,0.01 v 0 l -0.04,-0.01 0.04,0.01 c -0.09,0.19 -0.77,2.18 -0.96,6.09 l -0.01,0.13 c -0.03,0.5 -0.05,1.28 -0.05,2.31 -0.05,6.61 1.2,20.63 4.11,39.67 l -0.06,-0.36 76.19,472.72 c 1.86,11.53 -2,23.28 -10.34,31.46 -8.35,8.18 -20.17,11.81 -31.66,9.72 l -201.47,-36.6 c -14.99,-2.72 -26.7,-14.68 -29.13,-29.72 l -76.24,-472.74 -0.03,-0.18 c -2.88,-18.47 -4.4,-36.88 -4.4,-55.16 0,-5.95 0.17,-11.88 0.49,-17.79 v 0.06 c 1.59,-29.75 7.31,-56.69 18.46,-80.39 11.07,-23.66 28.08,-43.82 49.63,-57.84 l 19.74,30.13"
         style="fill:#353336;fill-opacity:1;fill-rule:nonzero;stroke:none"
         id="path62" /><path
         d="m 4809.38,2164.46 c 30.07,27.06 53.82,58.8 71.16,95.25 17.33,36.45 25.02,72.92 23.05,109.47 -1.98,36.51 -14.61,52.66 -37.92,48.42 -33.58,-6.09 -64.97,-40.14 -94.11,-102.1 -29.15,-62.02 -48.81,-129.92 -58.94,-203.75 34.35,8.08 66.63,25.65 96.76,52.71 z m -244.8,-373.14 c -40.13,27.35 -62.14,77.55 -66.08,150.63 -3.36,61.47 5.65,131.44 26.81,210.01 21.22,78.51 58.79,149.92 112.8,214.16 54,64.24 124.88,104.34 212.58,120.27 102.6,18.67 156.22,-14.78 160.83,-100.28 2.65,-49.93 -9.81,-98.54 -37.35,-145.81 -27.65,-47.34 -65.44,-88.17 -113.52,-122.57 -48.08,-34.35 -100.02,-58.45 -155.77,-72.17 -0.43,-27.06 -0.4,-45.04 0.06,-53.95 2.39,-43.62 11.88,-71.86 28.59,-84.57 16.71,-12.69 42.73,-15.85 78.19,-9.38 50.42,9.15 92.92,28.1 127.61,56.93 34.75,28.8 72.33,69.83 112.81,123.06 l 47.61,8.66 c -94.66,-183.65 -218.53,-289.35 -371.51,-317.18 -69.08,-12.55 -123.58,-5.14 -163.66,22.19"
         style="fill:#353336;fill-opacity:1;fill-rule:nonzero;stroke:none"
         id="path64" /><path
         d="m 4809.38,2164.46 24.09,-26.79 c 33.5,30.11 60.28,65.91 79.6,106.56 17.58,36.9 26.87,75.22 26.85,113.76 0,4.39 -0.12,8.76 -0.36,13.13 -0.54,9.91 -1.73,19.2 -3.92,28.15 -1.66,6.71 -3.9,13.27 -7.11,19.65 -4.74,9.51 -12.07,18.94 -22.31,25.62 -10.17,6.75 -22.54,9.85 -33.63,9.75 -4.58,0 -9.07,-0.45 -13.46,-1.26 l 0.1,0.02 c -13.25,-2.39 -25.84,-7.53 -37.27,-14.61 -17.2,-10.66 -31.96,-25.42 -45.47,-43.37 -13.5,-17.99 -25.81,-39.34 -37.53,-64.23 -30.81,-65.55 -51.47,-137.09 -62.04,-214.19 -1.62,-11.82 2.63,-23.53 11.46,-31.55 8.82,-8.02 20.87,-11.15 32.48,-8.42 40.87,9.57 78.79,30.55 112.59,60.97 l 0.02,0.02 -24.09,26.79 -24.08,26.8 c -26.45,-23.7 -53.08,-37.85 -80.93,-44.44 l 8.25,-35.07 35.69,-4.89 c 9.69,70.55 28.37,134.82 55.86,193.32 13.49,28.78 27.16,49.84 39.27,62.9 6.04,6.56 11.62,11.12 16.39,14.06 4.81,2.96 8.73,4.36 12.27,5.01 l 0.1,0.02 0.44,0.06 0.03,0.01 -0.08,1.73 v -1.74 l 0.08,0.01 -0.08,1.73 v -1.74 10.53 l -5.04,-9 c 2.16,-1.26 4.62,-1.58 5.04,-1.53 v 10.53 l -5.04,-9 5.32,9.5 -8.58,-6.84 c 0.42,-0.56 1.65,-1.77 3.26,-2.66 l 5.32,9.5 -8.58,-6.84 2.66,2.13 -2.91,-1.79 0.25,-0.34 2.66,2.13 -2.91,-1.79 c 0.02,0 0.88,-1.55 1.67,-4.88 0.81,-3.32 1.56,-8.29 1.9,-14.64 0.17,-3.08 0.25,-6.17 0.25,-9.25 -0.03,-27.07 -6.31,-54.25 -19.86,-82.81 -15.36,-32.23 -36.07,-59.93 -62.72,-83.94 l 0.02,0.02 z m -244.8,-373.14 20.29,29.77 c -14.01,9.64 -25.06,22.9 -33.91,42.87 -8.76,19.9 -14.7,46.52 -16.49,79.93 v 0.03 c -0.42,7.68 -0.63,15.53 -0.63,23.57 -0.01,51.09 8.59,109.55 26.26,175.1 l -0.01,-0.03 c 19.88,73.46 54.78,139.87 105.59,200.37 24.4,29 52.17,52.16 83.82,70.08 31.66,17.91 67.32,30.6 107.62,37.93 16.68,3.04 31.4,4.45 43.99,4.44 14.45,0.01 26.04,-1.84 34.9,-4.77 6.68,-2.21 11.85,-4.96 16.15,-8.17 6.39,-4.87 11.23,-10.8 15.39,-20.03 4.08,-9.18 7.11,-21.82 7.99,-38.25 v 0.04 c 0.2,-3.75 0.3,-7.5 0.3,-11.23 -0.06,-38.6 -10.48,-76.08 -32.8,-114.54 l 0.02,0.04 c -25.01,-42.75 -59,-79.65 -103.38,-111.44 l 0.02,0.01 c -44.59,-31.83 -92.16,-53.86 -143.43,-66.5 -15.85,-3.89 -27.14,-18.07 -27.41,-34.39 -0.21,-12.94 -0.32,-23.87 -0.32,-32.89 0.01,-10.07 0.12,-17.61 0.42,-23.52 l 0.01,-0.09 c 1.34,-24 4.53,-44.85 10.76,-63.44 3.14,-9.28 7.08,-18.03 12.28,-26.16 5.18,-8.1 11.7,-15.6 19.71,-21.68 9.57,-7.29 20.52,-12.38 31.89,-15.52 11.39,-3.16 23.24,-4.47 35.51,-4.48 12.47,0.01 25.41,1.37 39.05,3.84 55.46,10.01 104.32,31.48 144.19,64.67 l -0.04,-0.03 c 37.83,31.4 76.89,74.31 118.5,128.99 l -28.68,21.81 6.45,-35.45 47.61,8.67 -6.45,35.44 -32.03,16.51 c -45.69,-88.68 -97.73,-157.06 -155.25,-206.13 -57.6,-49.08 -120.44,-79.27 -190.67,-92.11 -19.93,-3.62 -38.09,-5.34 -54.44,-5.33 -17.8,-0.01 -33.4,2.03 -46.98,5.75 -13.61,3.73 -25.22,9.09 -35.5,16.09 l -20.3,-29.77 -20.3,-29.76 c 17.18,-11.73 36.43,-20.43 57.09,-26.07 20.66,-5.65 42.72,-8.3 65.99,-8.3 21.37,0 43.78,2.22 67.32,6.5 82.76,14.98 158.33,51.55 224.58,108.19 66.33,56.65 123.55,132.95 172.51,227.93 6.27,12.15 5.07,26.96 -3.07,37.94 -8.14,10.99 -21.95,16.46 -35.4,14.01 l -47.61,-8.66 c -8.92,-1.63 -16.74,-6.43 -22.23,-13.64 -39.34,-51.79 -75.45,-90.92 -107.12,-117.12 l -0.04,-0.04 c -29.51,-24.46 -65.65,-40.9 -111.01,-49.19 -10.25,-1.87 -19.03,-2.68 -26.17,-2.68 -7.05,-0.01 -12.46,0.79 -16.25,1.85 -3.83,1.08 -6.02,2.3 -7.55,3.45 -0.33,0.26 -1.26,1.05 -2.64,3.19 -2.05,3.14 -4.83,9.32 -7.03,18.56 -2.23,9.22 -3.94,21.38 -4.73,36.1 v -0.09 c -0.19,3.49 -0.32,10.38 -0.32,19.77 0,8.46 0.1,19.06 0.31,31.71 l -36.03,0.59 8.62,-34.98 c 60.21,14.8 116.53,40.98 168.09,77.83 l 0.02,0.02 c 51.79,37.02 93.37,81.78 123.67,133.69 l 0.02,0.05 c 27.91,47.78 42.65,98.75 42.59,150.8 0,5.01 -0.13,10.03 -0.4,15.05 v 0.03 c -1.11,20.5 -4.66,39.58 -11.39,57.08 -5.04,13.1 -11.94,25.28 -20.76,35.92 -13.18,16.04 -30.67,28.19 -50.2,35.65 -19.58,7.52 -41.03,10.73 -64.03,10.74 -17.88,0 -36.77,-1.95 -56.88,-5.6 -47.37,-8.6 -91.01,-23.92 -130.21,-46.11 -39.21,-22.17 -73.88,-51.19 -103.49,-86.43 -57.19,-67.98 -97.46,-144.38 -120,-227.95 v -0.02 c -18.91,-70.22 -28.73,-134.7 -28.75,-193.84 0,-9.31 0.25,-18.48 0.74,-27.51 v 0.02 c 2.16,-39.66 9.19,-74.68 22.46,-104.99 13.17,-30.23 33.19,-55.74 59.31,-73.46 l 20.29,29.77"
         style="fill:#353336;fill-opacity:1;fill-rule:nonzero;stroke:none"
         id="path66" /><path
         d="m 5436.74,1941.1 c -23.9,24.44 -37.07,58.46 -39.4,102.12 -1,18.73 0.12,40.32 3.57,64.76 3.4,24.44 7.01,48.31 10.94,71.49 3.93,23.22 6.65,38.09 8.19,44.71 5.79,32.5 11.15,64.52 16.03,96 4.93,31.46 6.87,56.61 5.88,75.28 -2.44,45.47 -20.49,65.15 -54.08,59.06 -24.24,-4.42 -45.06,-19.71 -62.51,-45.82 -17.45,-26.09 -30.77,-58.44 -40.01,-97.02 l -72,-446.31 -201.52,-36.63 112.32,695.22 201.47,36.62 -11.61,-72.28 c 43.94,58.38 97.11,93.22 159.68,104.62 47.55,8.63 86.05,3.01 115.33,-16.86 29.38,-19.86 45.42,-55.17 48.16,-105.97 1.35,-25.85 -0.39,-55.16 -5.23,-87.97 -4.79,-32.85 -12.07,-73.03 -21.73,-120.72 -5.94,-28.98 -11.27,-57.15 -15.92,-84.55 -4.65,-27.36 -6.55,-48.62 -5.76,-63.75 0.97,-17.85 5.92,-30.88 14.86,-39.17 8.88,-8.28 23.64,-10.55 44.13,-6.8 22.42,4.04 37.65,9.55 45.79,16.41 -3.15,-46.48 -18.36,-83.89 -45.56,-112.2 -27.22,-28.36 -60.87,-46.14 -100.96,-53.42 -49.48,-9 -86.1,-1.32 -110.06,23.18"
         style="fill:#353336;fill-opacity:1;fill-rule:nonzero;stroke:none"
         id="path68" /><path
         d="m 5436.74,1941.1 25.76,25.18 c -8.39,8.62 -14.94,18.78 -19.94,31.65 -4.97,12.85 -8.25,28.48 -9.25,47.21 -0.19,3.67 -0.3,7.55 -0.3,11.6 0,13.41 1.12,28.86 3.57,46.2 l 0.01,0.08 c 3.36,24.16 6.93,47.68 10.78,70.43 1.95,11.51 3.59,20.91 4.91,28.11 1.31,7.16 2.34,12.31 2.85,14.45 l 0.38,1.85 c 5.83,32.75 11.24,65.03 16.16,96.81 l -0.01,-0.07 c 4.28,27.39 6.55,50.72 6.56,70.83 0,4.12 -0.1,8.09 -0.3,11.9 v 0.06 c -0.65,11.99 -2.2,23.2 -5.11,33.88 -2.19,8 -5.16,15.73 -9.3,23.05 -6.12,10.95 -15.35,21.08 -27.02,27.75 -11.63,6.73 -24.89,9.61 -37.36,9.56 -5.98,0 -11.89,-0.61 -17.74,-1.67 h 0.03 c -17.57,-3.16 -34.24,-10.55 -48.65,-21.17 -14.47,-10.61 -26.78,-24.24 -37.36,-40.08 -20.39,-30.5 -35.09,-66.9 -45.09,-108.64 l -0.54,-2.65 -67.94,-421.15 -126.32,-22.96 100.13,619.76 126.32,22.96 -3.54,-22.01 c -2.62,-16.33 6.25,-32.39 21.47,-38.87 15.22,-6.47 32.94,-1.72 42.89,11.49 19.86,26.37 41.14,46.59 63.82,61.45 22.71,14.85 46.86,24.5 73.54,29.39 h -0.02 c 12.55,2.28 23.99,3.34 34.25,3.33 11.84,0 22.09,-1.39 31,-3.87 8.91,-2.49 16.51,-6.03 23.4,-10.69 l 0.06,-0.04 c 8.91,-6.12 15.7,-13.99 21.45,-26.44 5.66,-12.39 9.74,-29.51 10.91,-51.62 v 0.07 c 0.26,-4.97 0.39,-10.16 0.39,-15.54 0,-19.27 -1.71,-41.07 -5.29,-65.3 l -0.01,-0.06 c -4.64,-31.86 -11.8,-71.5 -21.38,-118.76 l 0.01,0.07 c -6.01,-29.32 -11.41,-57.89 -16.14,-85.75 -4.16,-24.6 -6.42,-45.06 -6.45,-62.73 0,-3.03 0.07,-6.01 0.23,-8.95 v -0.07 c 0.66,-11.75 2.62,-23.08 6.74,-33.99 4.09,-10.85 10.61,-21.32 19.59,-29.62 l -0.06,0.06 c 7.25,-6.8 16.04,-11.58 24.82,-14.37 8.82,-2.81 17.65,-3.85 26.39,-3.86 7.94,0.01 15.86,0.87 23.95,2.34 l -0.07,-0.01 c 12.63,2.28 23.81,5.03 34.04,8.69 10.2,3.73 19.61,8.17 28.56,15.61 l -23.2,27.56 -35.94,2.44 c -1.36,-20 -5.24,-37.12 -11.2,-51.79 -5.99,-14.69 -13.99,-27.02 -24.4,-37.88 l -0.02,-0.02 c -11.09,-11.54 -23.12,-20.63 -36.5,-27.72 -13.39,-7.07 -28.18,-12.16 -44.9,-15.2 -11.56,-2.1 -21.84,-3.06 -30.77,-3.06 -12.13,0 -21.65,1.75 -29.08,4.48 -7.46,2.79 -12.98,6.4 -18.01,11.5 l -25.76,-25.19 -25.76,-25.19 c 12.46,-12.79 27.82,-22.59 44.64,-28.74 16.85,-6.19 35,-8.91 53.97,-8.91 14.01,0 28.53,1.47 43.65,4.22 23.36,4.23 45.44,11.67 65.71,22.4 20.27,10.71 38.67,24.69 54.8,41.51 l -0.02,-0.01 c 16.79,17.44 30,37.97 39.21,60.69 9.23,22.73 14.53,47.56 16.33,74.03 0.97,14.42 -6.75,28.03 -19.65,34.57 -12.89,6.54 -28.44,4.75 -39.5,-4.57 l 2.01,-2.39 -1.86,2.51 -0.15,-0.12 2.01,-2.39 -1.86,2.51 c 0,0 -0.61,-0.43 -1.91,-1.06 -3.89,-1.99 -13.47,-5.15 -27.22,-7.57 l -0.07,-0.01 c -4.68,-0.86 -8.43,-1.17 -11.03,-1.17 -2.89,-0.01 -4.33,0.38 -4.39,0.42 l -1.13,-3.53 1.82,3.19 -0.69,0.34 -1.13,-3.53 1.82,3.19 -4.35,-7.62 5.98,6.41 -1.63,1.21 -4.35,-7.62 5.98,6.41 -0.07,0.06 -0.26,0.36 c -0.6,0.79 -2.66,5.12 -3.13,14.37 V 2115 c -0.07,1.51 -0.12,3.23 -0.12,5.15 -0.03,11.23 1.65,28.58 5.43,50.66 4.57,26.95 9.82,54.73 15.69,83.36 l 0.02,0.07 c 9.75,48.11 17.13,88.84 22.07,122.69 l -0.01,-0.06 c 3.99,27.09 6.05,52.3 6.06,75.81 0,6.55 -0.16,12.98 -0.49,19.28 l -0.01,0.08 c -1.56,28.69 -6.87,54.62 -17.26,77.54 -10.31,22.87 -26.23,42.58 -46.7,56.33 l 0.06,-0.05 c -13.53,9.21 -28.59,16.07 -44.55,20.5 -15.98,4.44 -32.83,6.51 -50.32,6.51 -15.19,0 -30.89,-1.55 -47.12,-4.5 h -0.03 c -35.88,-6.52 -69.61,-19.99 -100.11,-40.01 -30.53,-20 -57.81,-46.38 -81.9,-78.39 l 28.79,-21.67 35.57,-5.71 11.61,72.28 c 1.85,11.53 -2.01,23.27 -10.36,31.45 -8.35,8.17 -20.16,11.8 -31.66,9.71 l -201.46,-36.62 c -14.99,-2.73 -26.7,-14.66 -29.13,-29.7 l -112.32,-695.22 c -1.86,-11.53 2,-23.29 10.34,-31.47 8.35,-8.18 20.17,-11.81 31.67,-9.72 l 201.52,36.63 c 14.99,2.72 26.7,14.67 29.13,29.71 l 72,446.31 -35.57,5.73 35.04,-8.39 c 8.47,35.41 20.42,63.73 34.92,85.37 6.87,10.29 13.7,17.37 20.07,22.03 6.42,4.66 12.28,7.13 18.95,8.38 h 0.02 c 2.08,0.39 3.68,0.5 4.78,0.5 1.01,0 1.57,-0.09 1.76,-0.14 l 0.09,-0.02 0.81,2.48 -1.74,-1.93 0.93,-0.55 0.81,2.48 -1.74,-1.93 0.43,0.49 -0.46,-0.45 0.03,-0.04 0.43,0.49 -0.46,-0.45 c 0.01,0 1.32,-1.45 2.73,-5.85 1.41,-4.33 2.74,-11.32 3.22,-20.61 l -0.01,0.06 c 0.13,-2.5 0.21,-5.22 0.21,-8.17 0.01,-14.54 -1.78,-34.78 -5.7,-59.67 l -0.01,-0.07 c -4.82,-31.19 -10.14,-62.93 -15.89,-95.19 l 35.47,-6.32 -35.09,8.18 c -1.04,-4.49 -2.13,-10.08 -3.55,-17.82 -1.41,-7.69 -3.09,-17.34 -5.07,-29.05 -4,-23.61 -7.67,-47.82 -11.11,-72.55 l 0.01,0.08 c -2.84,-20.18 -4.27,-38.89 -4.27,-56.28 0,-5.26 0.13,-10.41 0.4,-15.44 1.33,-24.93 5.8,-48.14 13.98,-69.32 8.15,-21.17 20.13,-40.24 35.64,-56.07 l 25.76,25.19"
         style="fill:#353336;fill-opacity:1;fill-rule:nonzero;stroke:none"
         id="path70" /><path
         d="m 942.258,918.211 c -43.313,25.859 -66.406,65.988 -69.328,120.319 -1.844,33.87 4.883,66.57 20.136,98.13 15.254,31.57 36.875,58.19 64.934,79.92 27.996,21.76 59.29,35.8 93.8,42.08 35.46,6.41 64.59,3.14 87.44,-9.77 22.81,-12.97 35.01,-33.26 36.47,-60.85 1.16,-21.4 -3.06,-39.24 -12.64,-53.58 -8.99,9.18 -20.89,15.55 -35.67,19.17 -14.8,3.58 -30.12,3.91 -45.97,1.06 -28,-5.09 -50.37,-18.12 -67.1,-39.2 -16.81,-21.01 -24.389,-45.79 -22.853,-74.33 1.531,-28.48 11.373,-50.101 29.613,-64.769 18.2,-14.7 40.4,-19.653 66.52,-14.891 32.64,5.91 59.87,24.82 81.73,56.7 21.81,31.83 37.34,76.07 46.54,132.57 l 54.02,308.08 -5.57,-1.01 c -23.37,-38.42 -52.55,-69.8 -87.47,-94.14 -34.98,-24.37 -73.9,-40.45 -116.81,-48.24 -54.12,-9.84 -102.421,-4.65 -144.972,15.49 -42.547,20.14 -76.16,53.86 -100.808,101.13 -24.707,47.23 -38.86,104.71 -42.5,172.41 -5.305,98.03 12.293,191.41 52.714,280.2 40.418,88.79 98.555,163.44 174.434,224 75.892,60.58 160.892,99.42 255.132,116.56 79.27,14.4 142.92,9.32 190.86,-15.24 47.96,-24.58 73.46,-65.39 76.55,-122.38 2.04,-38.32 -6.09,-70.85 -24.44,-97.59 -18.32,-26.73 -43.39,-42.97 -75.09,-48.74 -17.72,-3.2 -34.44,-2.66 -50.23,1.67 -15.76,4.34 -29.16,12.24 -40.15,23.76 16.21,13.74 29.53,33.46 39.91,59.21 10.39,25.7 14.94,50.62 13.66,74.67 -1.44,26.72 -10.74,45.97 -27.84,57.68 -17.13,11.76 -40.63,14.92 -70.45,9.49 -54.12,-9.82 -105.12,-42.28 -153.01,-97.32 -47.9,-55.04 -85.28,-122.34 -112.07,-201.89 -26.797,-79.57 -38,-159.85 -33.645,-240.92 3.614,-66.83 17.545,-115.82 41.845,-146.92 24.28,-31.15 57.41,-42.87 99.39,-35.25 50.36,9.15 93.53,42.65 129.53,100.48 35.97,57.82 63.02,137.4 81.09,238.76 l 165.19,28.66 -77.94,-467.65 c -22.73,-138.15 -59.65,-243.38 -110.86,-315.67 -51.2,-72.29 -120.21,-116.33 -206.96,-132.091 -68.1,-12.379 -123.824,-5.629 -167.132,20.242"
         style="fill:#ed824b;fill-opacity:1;fill-rule:nonzero;stroke:none"
         id="path72" /><path
         d="m 1608.39,1300.43 c -28.99,21.68 -44.89,59.33 -47.79,112.76 -1.17,22.26 0.97,51.88 6.53,88.89 l 113.59,696.84 205.69,64.33 -122.02,-750.95 c -3.01,-14.01 -4.1,-28.65 -3.28,-43.79 0.95,-17.82 6.07,-29.71 15.33,-35.68 9.26,-5.96 24.17,-7.07 44.67,-3.34 27.07,4.91 51.68,20.41 73.82,46.5 22.12,26.04 37.38,57.4 45.77,93.99 l 58.82,10.71 c -29.37,-102.53 -70.17,-175.84 -122.38,-219.97 -52.27,-44.13 -105.01,-71.01 -158.13,-80.68 -44.82,-8.14 -81.68,-1.37 -110.62,20.39"
         style="fill:#ed824b;fill-opacity:1;fill-rule:nonzero;stroke:none"
         id="path74" /><path
         d="m 2272.88,1541.96 c 21.08,28.57 38.85,65.56 53.37,110.92 14.52,45.36 24.09,94.58 28.75,147.63 -25.46,0.76 -39.05,17.2 -40.76,49.27 -1.98,36.5 11.18,63.19 39.45,80.05 -3.43,29.03 -9.2,48.45 -17.25,58.28 -8.06,9.74 -21.44,12.97 -40.07,9.57 -30.79,-5.61 -59.52,-32.42 -86.1,-80.45 -26.63,-48.01 -47.18,-103.52 -61.68,-166.41 -14.53,-62.92 -20.55,-117.11 -18.08,-162.52 2.3,-42.78 8.95,-70.56 20.03,-83.4 11.02,-12.85 30.08,-16.82 57.15,-11.89 22.38,4.04 44.15,20.38 65.19,48.95 z m -281.11,-158.34 c -41.94,26.53 -64.89,76.33 -68.83,149.42 -3.28,60.58 6.2,130.18 28.3,208.92 22.13,78.68 60.65,150.26 115.62,214.67 54.91,64.42 126.2,104.58 213.9,120.52 119.43,21.7 182.96,-38.71 190.65,-181.26 l 0.07,-1.32 c 2.84,-0.43 7.98,0.06 15.46,1.42 30.77,5.59 65.82,19.84 105.08,42.72 39.26,22.86 74.62,48.46 106.12,76.64 l 14.49,-33.79 c -25.55,-32.51 -59.49,-62.33 -101.83,-89.35 -42.34,-27.06 -88.98,-49.24 -139.84,-66.58 -3.14,-82.45 -18.42,-156.77 -45.92,-222.92 -27.54,-66.21 -64.67,-120.2 -111.36,-161.97 -46.75,-41.79 -98.58,-67.85 -155.49,-78.18 -69.03,-12.56 -124.52,-5.57 -166.42,21.06"
         style="fill:#ed824b;fill-opacity:1;fill-rule:nonzero;stroke:none"
         id="path76" /><path
         d="m 2945.91,1546.91 c -28.13,24.1 -43.35,57.56 -45.65,100.28 -1.03,18.73 0.14,40.35 3.54,64.77 3.4,24.47 7.04,48.32 10.97,71.51 3.9,23.19 6.67,38.09 8.19,44.69 5.79,32.51 11.12,64.54 16.03,96 4.9,31.49 6.84,56.63 5.85,75.31 -2.44,45.46 -20.46,65.14 -54.08,59.02 -24.26,-4.39 -45.08,-19.68 -62.51,-45.79 -17.45,-26.12 -30.77,-58.47 -39.98,-97.01 l -72.04,-446.34 -201.51,-36.6 153.92,945.71 205.67,64.34 -57.42,-350.52 c 43.98,58.39 97.18,93.25 159.69,104.62 47.55,8.63 86.05,3 115.38,-16.84 29.33,-19.89 45.34,-55.19 48.08,-106 1.38,-25.84 -0.33,-55.15 -5.15,-87.95 -4.84,-32.84 -12.07,-73.05 -21.75,-120.71 -6,-28.97 -11.29,-57.15 -15.92,-84.55 -4.68,-27.35 -6.58,-48.64 -5.76,-63.78 0.97,-17.82 5.9,-30.88 14.83,-39.16 8.93,-8.28 23.64,-10.52 44.16,-6.79 28,5.07 49.85,18.72 65.61,40.92 15.78,22.23 30.97,54.91 45.58,98.03 l 58.74,10.67 c -29.22,-104.26 -65.53,-177.22 -108.96,-218.85 -43.45,-41.62 -89.45,-66.84 -137.93,-75.67 -56.92,-10.34 -99.42,-3.46 -127.58,20.69"
         style="fill:#ed824b;fill-opacity:1;fill-rule:nonzero;stroke:none"
         id="path78" /><path
         d="m 3594.38,1783.5 c 21.74,25.09 35.81,56.68 42.28,94.73 l 50.84,314.27 c -0.59,11.56 -5.9,22.05 -15.8,31.54 -9.96,9.42 -24.72,12.4 -44.27,8.82 -37.33,-6.77 -69.77,-33.62 -97.43,-80.46 -27.61,-46.83 -48.26,-101.02 -61.88,-162.42 -13.63,-61.42 -19.29,-114.41 -16.88,-158.92 2.41,-44.58 10.69,-71.87 24.88,-81.88 14.19,-10.01 31.1,-13.23 50.71,-9.66 23.3,4.22 45.86,18.9 67.55,43.98 z m -287.26,-162.18 c -37.31,28.3 -58,79.4 -61.96,153.37 -3.56,65.94 6.48,137.7 30.09,215.34 23.59,77.59 61.33,146.53 113.16,206.8 51.89,60.26 115.59,97.24 191.13,110.99 38.27,6.95 67.04,5.9 86.38,-3.2 19.34,-9.06 29.54,-23.87 30.65,-44.33 l 0.52,-9.4 11.58,73.65 201.47,36.62 -76.25,-472.71 c -3.01,-14.03 -4.12,-28.65 -3.27,-43.79 2.08,-38.32 22.19,-53.99 60.47,-47.03 26.12,4.74 48.11,20.39 65.99,47.08 17.83,26.63 31.38,59.68 40.59,99.13 l 58.76,10.67 c -29.34,-102.5 -68.49,-175.5 -117.49,-219.04 -49.01,-43.53 -99.16,-69.99 -150.46,-79.31 -39.16,-7.1 -71.22,-2.36 -96.13,14.23 -24.93,16.63 -40.79,44.57 -47.61,83.79 -25.14,-41.46 -53.59,-76.54 -85.45,-105.26 -31.92,-28.75 -70.74,-47.24 -116.42,-55.57 -53.18,-9.67 -98.43,-0.36 -135.75,27.97"
         style="fill:#ed824b;fill-opacity:1;fill-rule:nonzero;stroke:none"
         id="path80" /><path
         d="m 4041.7,1741.99 c -31.74,20.8 -49.06,57.43 -51.84,110.01 -1.19,21.39 0.06,43.2 3.52,65.42 l 76.25,472.75 201.46,36.6 -76.2,-472.71 c -3.48,-23.16 -4.93,-39.58 -4.39,-49.4 1.56,-29.4 18.19,-41.21 49.94,-35.44 42.86,7.79 81.38,40.88 115.45,99.26 34.01,58.37 60.36,125.23 78.95,200.59 18.52,75.37 26.37,138.86 23.61,190.52 -1.65,-4.8 -7.5,-9.25 -17.66,-13.32 -10.15,-4.12 -18.93,-6.81 -26.38,-8.16 -15.91,-2.88 -28.64,1.98 -38.25,14.62 -9.65,12.66 -14.88,27.45 -15.83,44.38 -1.12,21.37 5.15,40.06 18.87,56.05 13.73,15.98 35.09,26.65 63.98,31.89 30.81,5.61 53.77,-1.25 68.93,-20.55 15.23,-19.29 23.67,-45.86 25.52,-79.69 4.31,-80.18 -5.53,-168.62 -29.47,-265.17 -24.07,-96.62 -64.14,-182.37 -120.41,-257.37 -56.21,-74.99 -128.7,-120.56 -217.28,-136.65 -54.12,-9.85 -97.03,-4.43 -128.77,16.37"
         style="fill:#ed824b;fill-opacity:1;fill-rule:nonzero;stroke:none"
         id="path82" /><path
         d="m 4871.46,2233.59 c 30.08,27.06 53.81,58.8 71.15,95.25 17.34,36.45 25.03,72.92 23.06,109.47 -1.99,36.51 -14.62,52.66 -37.92,48.42 -33.58,-6.09 -64.97,-40.14 -94.12,-102.1 -29.15,-62.02 -48.81,-129.92 -58.94,-203.75 34.36,8.09 66.63,25.65 96.77,52.71 z m -244.8,-373.14 c -40.13,27.36 -62.14,77.55 -66.08,150.63 -3.36,61.47 5.64,131.44 26.8,210.01 21.22,78.51 58.8,149.92 112.8,214.16 54,64.25 124.88,104.34 212.58,120.27 102.6,18.67 156.22,-14.79 160.83,-100.28 2.66,-49.94 -9.81,-98.54 -37.35,-145.81 -27.64,-47.34 -65.43,-88.17 -113.51,-122.57 -48.09,-34.35 -100.03,-58.45 -155.77,-72.17 -0.44,-27.06 -0.41,-45.03 0.05,-53.95 2.4,-43.62 11.88,-71.86 28.59,-84.57 16.71,-12.69 42.74,-15.85 78.19,-9.38 50.42,9.15 92.92,28.11 127.62,56.93 34.74,28.8 72.33,69.83 112.81,123.06 l 47.6,8.66 c -94.66,-183.65 -218.53,-289.35 -371.51,-317.17 -69.08,-12.55 -123.58,-5.15 -163.65,22.18"
         style="fill:#ed824b;fill-opacity:1;fill-rule:nonzero;stroke:none"
         id="path84" /><path
         d="m 5498.82,2010.23 c -23.91,24.44 -37.08,58.47 -39.4,102.12 -1.01,18.73 0.11,40.32 3.57,64.76 3.39,24.45 7.01,48.31 10.94,71.49 3.93,23.22 6.64,38.09 8.19,44.71 5.78,32.5 11.14,64.51 16.03,96 4.93,31.46 6.87,56.61 5.87,75.28 -2.44,45.47 -20.49,65.15 -54.07,59.05 -24.25,-4.41 -45.07,-19.7 -62.52,-45.82 -17.45,-26.08 -30.76,-58.43 -40,-97.01 l -72.01,-446.31 -201.51,-36.63 112.31,695.22 201.47,36.62 -11.61,-72.28 c 43.94,58.38 97.12,93.23 159.69,104.62 47.55,8.64 86.04,3.01 115.32,-16.86 29.38,-19.87 45.42,-55.17 48.16,-105.97 1.36,-25.85 -0.39,-55.15 -5.22,-87.97 -4.8,-32.85 -12.08,-73.04 -21.73,-120.72 -5.95,-28.98 -11.27,-57.15 -15.93,-84.55 -4.65,-27.35 -6.55,-48.61 -5.75,-63.75 0.96,-17.85 5.92,-30.88 14.85,-39.16 8.88,-8.29 23.64,-10.56 44.14,-6.81 22.41,4.05 37.65,9.55 45.78,16.41 -3.14,-46.48 -18.35,-83.89 -45.56,-112.2 -27.22,-28.36 -60.86,-46.14 -100.96,-53.42 -49.48,-9 -86.09,-1.32 -110.05,23.18"
         style="fill:#ed824b;fill-opacity:1;fill-rule:nonzero;stroke:none"
         id="path86" /><path
         d="m 1069.11,986.77 c -12.02,0 -22.18,3.492 -31.05,10.64 -12.08,9.73 -18.49,24.51 -19.6,45.21 -1.18,21.92 4.36,40.24 16.96,56 12.67,15.95 29.27,25.57 50.83,29.48 5.44,0.98 10.85,1.48 16.07,1.48 6.35,0 12.65,-0.74 18.73,-2.21 9.84,-2.42 17.29,-6.28 22.71,-11.82 5.11,-5.22 12.08,-8.12 19.31,-8.12 l 2.52,0.12 c 5.66,0.54 10.95,2.83 15.16,6.48 -8.41,-33.15 -19.68,-60.1 -33.71,-80.55 -17.76,-25.93 -38.78,-40.769 -64.26,-45.39 -4.8,-0.871 -9.39,-1.32 -13.67,-1.32 z m 266.45,1273.49 c -26.54,0 -55.59,-2.83 -86.34,-8.42 -98.23,-17.87 -188.12,-58.93 -267.157,-122.02 -78.879,-62.96 -140.168,-141.67 -182.168,-233.94 -42.082,-92.42 -60.618,-190.96 -55.11,-292.84 3.84,-71.32 19.16,-133.05 45.547,-183.49 27.305,-52.36 65.391,-90.4 113.184,-113.02 32.129,-15.21 67.531,-22.92 105.204,-22.92 18.03,0 36.93,1.77 56.16,5.27 46.52,8.45 89.39,26.16 127.42,52.65 12.1,8.42 23.59,17.67 34.45,27.69 l -27.51,-156.87 c -6.7,25.83 -22.55,46.33 -46.65,60.04 -19.39,10.94 -42.12,16.48 -67.65,16.48 -11.91,0 -24.68,-1.22 -37.95,-3.61 -38.73,-7.06 -74.244,-22.99 -105.584,-47.34 -31.199,-24.18 -55.664,-54.29 -72.676,-89.5 -17.207,-35.61 -24.871,-73.08 -22.781,-111.36 3.418,-63.619 31.16,-111.412 82.449,-142.048 33.399,-19.953 73.352,-30.071 118.752,-30.071 20.98,0 43.54,2.168 67.07,6.45 93.54,16.988 168.97,65.121 224.18,143.049 53.32,75.27 92.17,185.25 115.48,326.9 l 77.71,466.38 c 0.39,1.82 0.6,3.72 0.6,5.67 0,14.86 -11.98,26.93 -26.84,27.02 h -0.2 l -0.89,-0.02 c -1.45,-0.05 -2.87,-0.2 -4.25,-0.47 l -164.67,-28.58 c -11.2,-1.94 -19.99,-10.68 -21.98,-21.87 -17.39,-97.48 -43.45,-174.6 -77.43,-229.24 -32.08,-51.54 -68.54,-80.37 -111.43,-88.16 -6.64,-1.21 -13,-1.81 -18.94,-1.81 -22.64,0 -39.89,8.6 -54.3,27.08 -20.71,26.52 -32.88,70.85 -36.17,131.77 -4.15,77.25 6.7,154.92 32.26,230.84 25.52,75.77 61.47,140.62 106.85,192.77 43.56,50.07 89.81,79.83 137.44,88.47 7.81,1.42 15.07,2.14 21.57,2.14 12.03,0 21.7,-2.46 28.77,-7.31 3.66,-2.5 14.71,-10.08 16.16,-36.86 1.06,-19.97 -2.89,-41.2 -11.73,-63.09 -8.67,-21.5 -19.54,-37.88 -32.34,-48.73 -5.67,-4.82 -9.11,-11.76 -9.5,-19.18 -0.39,-7.43 2.3,-14.7 7.43,-20.08 14.34,-15.04 32.01,-25.52 52.53,-31.16 11.35,-3.12 23.21,-4.69 35.27,-4.69 8.77,0 17.83,0.83 26.94,2.48 38.98,7.1 70.12,27.3 92.57,60.06 21.69,31.59 31.49,70.06 29.12,114.3 -3.61,67.06 -34.3,115.83 -91.2,144.99 -33.93,17.39 -74.87,26.2 -121.67,26.2 z m 169.59,-446.87 h 0.05 m -169.64,419.84 c 42.67,0 79.13,-7.74 109.34,-23.22 47.97,-24.58 73.47,-65.39 76.55,-122.38 2.05,-38.32 -6.08,-70.85 -24.43,-97.59 -18.32,-26.73 -43.39,-42.97 -75.09,-48.74 -7.55,-1.37 -14.94,-2.05 -22.13,-2.05 -9.68,0 -19.05,1.23 -28.1,3.72 -15.76,4.34 -29.16,12.24 -40.15,23.76 16.21,13.74 29.53,33.46 39.91,59.21 10.38,25.7 14.94,50.62 13.66,74.67 -1.44,26.72 -10.74,45.97 -27.84,57.68 -11.71,8.05 -26.41,12.06 -44.07,12.06 -8.16,0 -16.96,-0.86 -26.38,-2.57 -54.12,-9.82 -105.12,-42.28 -153.01,-97.32 -47.9,-55.04 -85.28,-122.34 -112.07,-201.88 -26.797,-79.58 -38,-159.86 -33.645,-240.93 3.614,-66.83 17.545,-115.81 41.845,-146.92 19.49,-25.01 44.7,-37.5 75.61,-37.5 7.59,0 15.51,0.76 23.78,2.25 50.36,9.15 93.53,42.65 129.53,100.48 35.97,57.82 63.01,137.41 81.09,238.76 l 165.19,28.67 -77.94,-467.66 c -22.73,-138.15 -59.65,-243.38 -110.86,-315.67 -51.21,-72.29 -120.21,-116.33 -206.96,-132.091 -22.05,-4 -42.79,-6 -62.24,-6 -40.64,0 -75.607,8.742 -104.892,26.242 -43.313,25.859 -66.406,65.988 -69.328,120.319 -1.844,33.87 4.883,66.57 20.136,98.13 15.254,31.57 36.875,58.19 64.922,79.92 28.008,21.76 59.302,35.8 93.812,42.08 11.75,2.12 22.79,3.19 33.14,3.19 20.92,0 39.02,-4.33 54.3,-12.96 22.81,-12.97 35.01,-33.26 36.46,-60.85 1.16,-21.39 -3.05,-39.23 -12.63,-53.58 -8.99,9.18 -20.89,15.55 -35.67,19.17 -8.2,1.99 -16.56,2.97 -25.08,2.97 -6.87,0 -13.83,-0.64 -20.89,-1.91 -28,-5.08 -50.37,-18.12 -67.1,-39.2 -16.81,-21.01 -24.396,-45.79 -22.853,-74.33 1.531,-28.48 11.373,-50.101 29.613,-64.769 13.75,-11.09 29.75,-16.641 48.02,-16.641 5.93,0 12.09,0.582 18.5,1.762 32.64,5.91 59.87,24.808 81.73,56.688 21.81,31.83 37.34,76.07 46.53,132.57 l 54.03,308.08 -5.58,-1.01 c -23.36,-38.42 -52.54,-69.8 -87.46,-94.15 -34.98,-24.35 -73.9,-40.44 -116.81,-48.23 -17.73,-3.22 -34.84,-4.83 -51.33,-4.83 -33.825,0 -65.036,6.78 -93.642,20.32 -42.547,20.14 -76.16,53.86 -100.808,101.13 -24.707,47.23 -38.86,104.72 -42.5,172.41 -5.305,98.03 12.293,191.41 52.714,280.2 40.418,88.79 98.555,163.44 174.434,224 75.882,60.58 160.892,99.42 255.122,116.56 29.31,5.33 56.48,7.98 81.52,7.98"
         style="fill:#353336;fill-opacity:1;fill-rule:nonzero;stroke:none"
         id="path88" /><path
         d="m 2187.04,1517.98 c -5.53,0 -12.79,0.78 -15.99,4.52 -1.81,2.09 -10.75,14.93 -13.57,67.26 -2.31,42.72 3.56,94.86 17.43,154.98 13.89,60.23 33.73,113.85 58.99,159.38 22.04,39.82 45.3,62.97 67.29,66.97 3.2,0.58 6.05,0.88 8.51,0.88 3.66,0 5.56,-0.67 5.92,-1.08 0.53,-0.66 5.08,-6.8 8.96,-28.64 -26.62,-22.27 -39.47,-54.38 -37.32,-93.93 2.19,-41.23 20.47,-59.94 38.46,-68.31 -5.02,-42.33 -13.47,-82.23 -25.2,-118.88 -13.58,-42.43 -30.2,-77.12 -49.38,-103.13 -16.51,-22.4 -33.19,-35.68 -48.26,-38.4 -5.91,-1.08 -11.22,-1.62 -15.84,-1.62 z m 1324.88,247.16 c -7.87,0 -14.29,1.94 -20.23,6.13 -0.09,0.07 -10.64,8.88 -13.47,61.24 -2.25,41.73 3.22,92.74 16.28,151.62 12.94,58.35 32.72,110.35 58.77,154.55 23.37,39.57 49.95,62.33 79,67.6 3.74,0.69 7.14,1.03 10.12,1.03 7.68,0 9.98,-2.19 10.75,-2.9 4.89,-4.69 6.55,-8.41 7.11,-11.16 l -50.27,-310.7 c -5.57,-32.78 -17.7,-60.22 -36.02,-81.35 -17.48,-20.21 -34.95,-32.01 -51.95,-35.08 -3.58,-0.66 -6.96,-0.98 -10.09,-0.98 z m 950.85,748.83 c -7.73,0 -15.94,-0.78 -24.43,-2.33 -35.03,-6.36 -61.82,-20.12 -79.64,-40.89 -18.33,-21.33 -26.85,-46.59 -25.35,-75.06 1.26,-22.51 8.44,-42.44 21.32,-59.35 12.95,-17.03 30.64,-26.05 51.17,-26.05 4.35,0 8.85,0.42 13.39,1.24 3.85,0.7 7.83,1.64 12.01,2.82 -2.24,-40.18 -9.82,-86.66 -22.64,-138.82 -17.85,-72.38 -43.44,-137.47 -76.06,-193.45 -29.74,-50.95 -62.35,-79.99 -96.93,-86.27 -3.6,-0.65 -6.82,-0.98 -9.58,-0.98 -4.01,0 -5.9,0.71 -6.25,0.95 0.01,0 -1.88,2.27 -2.3,10.32 -0.25,4.55 -0.04,16.24 4.13,43.92 l 76.16,472.44 c 1.39,8.67 -1.5,17.47 -7.77,23.61 -5.1,4.99 -11.9,7.72 -18.91,7.72 -1.61,0 -3.23,-0.15 -4.83,-0.44 l -201.46,-36.59 c -11.27,-2.05 -20.03,-10.97 -21.85,-22.28 l -71.87,-445.65 c -8.42,-35.56 -20.68,-65.53 -36.45,-89.09 -13.73,-20.49 -29.56,-32.11 -48.37,-35.53 -4.27,-0.77 -8.15,-1.16 -11.53,-1.16 -8.53,0 -15.88,0 -17.13,23.08 -0.71,12.65 0.2,24.97 2.71,36.66 l 0.26,1.36 76.24,472.72 c 1.39,8.65 -1.5,17.45 -7.77,23.59 -5.09,5 -11.9,7.73 -18.91,7.73 -1.6,0 -3.22,-0.14 -4.84,-0.43 l -201.45,-36.62 c -11.31,-2.07 -20.08,-11.05 -21.87,-22.4 l -0.28,-1.79 c -1.4,0.74 -2.83,1.45 -4.3,2.14 -14.67,6.91 -32.14,10.28 -53.36,10.28 -14.58,0 -31.18,-1.67 -49.32,-4.97 -81.43,-14.81 -150.99,-55.16 -206.78,-119.94 -54.08,-62.89 -93.96,-135.75 -118.54,-216.57 -24.42,-80.33 -34.93,-155.91 -31.21,-224.66 l 0.02,-0.52 c -8.29,-18.95 -16.4,-34.07 -24.17,-45.03 -11.62,-16.37 -27.45,-26.17 -48.4,-29.98 -4.79,-0.87 -9.05,-1.31 -12.67,-1.31 -5.38,0 -7.87,1 -8.31,1.35 -3.4,3.14 -5.66,10.73 -6.21,20.81 -0.5,9.03 0.05,26.38 5.41,57.75 4.61,27.3 9.9,55.41 15.74,83.62 9.67,47.53 17.07,88.63 22.03,122.24 5.05,34.45 6.87,65.86 5.4,93.35 -3.21,59.43 -23.36,102.13 -59.89,126.91 -24.94,16.88 -55.15,25.41 -89.82,25.41 -14.3,0 -29.62,-1.46 -45.55,-4.35 -41.82,-7.6 -80.07,-24.77 -114.39,-51.26 l 43.6,266.22 c 1.51,9.25 -1.88,18.62 -8.96,24.77 -4.98,4.33 -11.29,6.62 -17.71,6.62 -2.7,0 -5.42,-0.4 -8.07,-1.23 l -205.66,-64.36 c -9.76,-3.04 -16.96,-11.35 -18.6,-21.44 l -68.99,-423.86 c -28.26,-16.04 -54.06,-27.18 -76.95,-33.24 -17.21,150.17 -101.21,182.77 -170.85,182.77 -15.37,0 -31.95,-1.59 -49.26,-4.74 -93.57,-17 -170.82,-60.59 -229.63,-129.57 -57.23,-67.07 -97.96,-142.73 -121.06,-224.89 -22.85,-81.37 -32.69,-154.61 -29.28,-217.69 0.1,-1.73 0.23,-3.4 0.38,-5.05 -6.29,-12.16 -13.67,-23.26 -21.99,-33.06 -18.15,-21.37 -37.13,-33.59 -58.04,-37.39 -6.3,-1.15 -11.82,-1.72 -16.41,-1.72 -6.3,0 -8.61,1.08 -8.83,1.2 0.09,0.01 -2.38,3.32 -2.96,14.37 -0.7,12.77 0.21,25.09 2.71,36.69 l 0.25,1.34 122.01,750.95 c 1.5,9.25 -1.89,18.61 -8.97,24.75 -4.98,4.32 -11.29,6.61 -17.7,6.61 -2.7,0 -5.42,-0.41 -8.07,-1.23 l -205.68,-64.33 c -9.76,-3.06 -16.96,-11.36 -18.61,-21.45 l -113.58,-696.83 c -5.92,-39.39 -8.14,-70.25 -6.85,-94.67 3.34,-61.66 23.06,-106.39 58.6,-132.97 25.65,-19.3 56.6,-29.1 91.9,-29.1 12.6,0 25.96,1.26 39.72,3.76 57.66,10.5 115.1,39.64 170.74,86.62 16.85,14.24 32.77,31.54 47.61,51.69 10.14,-12.23 21.87,-22.59 35.14,-30.98 32.67,-20.75 72.58,-31.29 118.6,-31.29 20.88,0 43.46,2.18 67.11,6.48 61.62,11.19 118.37,39.67 168.65,84.63 49.53,44.3 89.34,102.08 118.31,171.73 26.52,63.79 42.33,135.67 47.06,213.9 18.68,6.93 36.98,14.61 54.84,23.03 l -63.84,-392.17 c -1.41,-8.66 1.47,-17.47 7.74,-23.62 5.1,-5.01 11.92,-7.74 18.93,-7.74 1.61,0 3.22,0.14 4.83,0.43 l 201.52,36.61 c 11.27,2.04 20.02,10.97 21.84,22.27 l 71.88,445.33 c 8.42,34.88 20.5,64.24 35.92,87.32 13.33,19.98 28,31.16 44.87,34.21 2.4,0.44 4.58,0.66 6.48,0.66 4.17,0 13.95,0 15.79,-34.54 0.9,-16.78 -0.97,-40.22 -5.56,-69.71 -4.91,-31.44 -10.23,-63.34 -15.82,-94.78 -2.22,-9.87 -5.75,-30.13 -8.34,-45.58 -3.85,-22.67 -7.58,-47 -11.09,-72.27 -3.62,-25.99 -4.89,-49.53 -3.77,-69.96 2.72,-50.22 21.24,-90.38 55.07,-119.33 24.63,-21.12 57.54,-31.85 97.8,-31.85 16.03,0 33.58,1.72 52.17,5.09 53.62,9.77 104.69,37.61 151.81,82.76 12.17,11.66 23.95,25.8 35.24,42.25 7.62,-9.48 16.11,-17.78 25.42,-24.84 32.49,-24.66 70.52,-37.16 113.02,-37.16 14.06,0 28.84,1.39 43.91,4.12 50.55,9.23 94.18,30.12 129.66,62.08 21,18.94 40.76,40.65 59.08,64.92 10.22,-19.16 23.87,-34.49 40.89,-45.84 21.89,-14.59 48.07,-21.97 77.83,-21.97 12.03,0 24.85,1.22 38.12,3.62 56.01,10.19 111.05,39.02 163.6,85.71 12.2,10.85 24,23.61 35.27,38.17 9.4,-13.68 21.01,-25.06 34.74,-34.06 25.88,-16.96 57.76,-25.55 94.78,-25.55 16.64,0 34.68,1.74 53.62,5.19 95.15,17.3 173.9,66.76 234.07,147.04 58.09,77.43 100.15,167.28 125.01,267.04 24.49,98.76 34.66,190.64 30.23,273.14 -2.16,39.46 -12.68,71.42 -31.29,94.99 -16.8,21.4 -41.22,32.73 -70.55,32.73 z M 2187.04,1490.96 c 6.26,0 13.15,0.68 20.64,2.05 22.39,4.04 44.16,20.38 65.2,48.95 21.08,28.57 38.85,65.56 53.37,110.92 14.52,45.36 24.09,94.58 28.75,147.63 -25.46,0.76 -39.05,17.2 -40.76,49.27 -1.98,36.5 11.18,63.19 39.45,80.05 -3.43,29.03 -9.2,48.45 -17.25,58.28 -5.99,7.23 -14.91,10.88 -26.74,10.88 -4.09,0 -8.55,-0.44 -13.34,-1.31 -30.78,-5.61 -59.51,-32.42 -86.09,-80.45 -26.63,-48.01 -47.18,-103.52 -61.68,-166.41 -14.53,-62.91 -20.55,-117.11 -18.09,-162.52 2.3,-42.78 8.96,-70.56 20.04,-83.4 7.98,-9.29 20.14,-13.94 36.5,-13.94 m 1324.88,247.16 c 4.77,0 9.74,0.47 14.9,1.4 23.31,4.22 45.86,18.9 67.56,43.98 21.74,25.09 35.81,56.68 42.28,94.73 l 50.84,314.27 c -0.59,11.56 -5.9,22.05 -15.8,31.54 -7.24,6.85 -17.01,10.29 -29.31,10.29 -4.62,0 -9.61,-0.49 -14.96,-1.47 -37.33,-6.77 -69.77,-33.62 -97.44,-80.46 -27.6,-46.83 -48.25,-101.02 -61.87,-162.42 -13.63,-61.42 -19.29,-114.41 -16.88,-158.92 2.4,-44.57 10.69,-71.87 24.88,-81.88 10.46,-7.37 22.39,-11.06 35.8,-11.06 m 950.85,748.83 c 21.15,0 37.58,-7.49 49.34,-22.45 15.23,-19.28 23.67,-45.86 25.52,-79.69 4.31,-80.18 -5.53,-168.62 -29.47,-265.17 -24.07,-96.61 -64.14,-182.37 -120.41,-257.37 -56.21,-74.99 -128.7,-120.55 -217.28,-136.66 -17.43,-3.17 -33.68,-4.75 -48.79,-4.75 -31.8,0 -58.46,7.03 -79.98,21.13 -22.04,14.45 -36.96,36.7 -45.06,66.45 -17.45,-29.67 -36.6,-54.22 -57.7,-72.97 -49.01,-43.53 -99.16,-69.98 -150.46,-79.31 -11.75,-2.12 -22.84,-3.19 -33.31,-3.19 -24.44,0 -45.38,5.8 -62.83,17.42 -24.92,16.63 -40.78,44.57 -47.6,83.79 -25.15,-41.46 -53.6,-76.54 -85.45,-105.26 -31.92,-28.75 -70.74,-47.24 -116.42,-55.57 -13.54,-2.46 -26.56,-3.69 -39.07,-3.69 -36.63,0 -68.87,10.55 -96.69,31.66 -17.66,13.41 -31.48,32.1 -41.68,55.75 -16.61,-31.23 -34.55,-56.53 -54.01,-75.17 -43.45,-41.63 -89.45,-66.85 -137.93,-75.68 -17.08,-3.1 -32.86,-4.66 -47.35,-4.66 -33.78,0 -60.51,8.44 -80.23,25.35 -28.13,24.1 -43.35,57.56 -45.65,100.28 -1.03,18.73 0.14,40.35 3.54,64.77 3.4,24.47 7.04,48.32 10.97,71.51 3.9,23.19 6.67,38.09 8.19,44.69 5.78,32.51 11.12,64.54 16.03,96 4.9,31.49 6.84,56.63 5.85,75.31 -2.15,40.07 -16.41,60.11 -42.78,60.11 -3.54,0 -7.31,-0.36 -11.3,-1.09 -24.26,-4.39 -45.08,-19.68 -62.51,-45.79 -17.45,-26.11 -30.77,-58.47 -39.98,-97.01 l -72.04,-446.34 -201.51,-36.6 72.5,445.43 c -35.95,-20.72 -74.61,-38.34 -116.26,-52.55 -3.14,-82.45 -18.42,-156.77 -45.92,-222.92 -27.54,-66.21 -64.67,-120.2 -111.37,-161.97 -46.74,-41.79 -98.57,-67.85 -155.48,-78.18 -22.15,-4.03 -42.91,-6.04 -62.27,-6.04 -40.98,0 -75.7,9.02 -104.16,27.1 -21.23,13.43 -37.56,32.9 -49.05,58.27 -19.41,-33.33 -41.2,-60.57 -65.57,-81.17 -52.27,-44.13 -105.01,-71.01 -158.13,-80.68 -12.23,-2.23 -23.86,-3.33 -34.9,-3.33 -29.44,0 -54.68,7.9 -75.72,23.72 -28.99,21.69 -44.89,59.33 -47.79,112.76 -1.18,22.26 0.97,51.88 6.53,88.89 l 113.58,696.84 205.69,64.33 -122.01,-750.95 c -3.01,-14.01 -4.1,-28.65 -3.28,-43.79 0.95,-17.82 6.07,-29.71 15.33,-35.68 5.69,-3.67 13.51,-5.49 23.45,-5.49 6.24,0 13.32,0.72 21.22,2.15 27.07,4.91 51.68,20.41 73.82,46.5 11.61,13.67 21.21,28.91 29.05,45.49 -0.34,3.87 -0.82,7.55 -1.05,11.56 -3.27,60.58 6.21,130.18 28.31,208.92 22.12,78.68 60.65,150.26 115.62,214.67 54.91,64.42 126.2,104.58 213.89,120.52 15.79,2.87 30.59,4.3 44.43,4.3 90.81,0 139.56,-61.86 146.23,-185.56 l 0.07,-1.32 c 0.67,-0.1 1.46,-0.15 2.39,-0.15 3,0 7.35,0.52 13.07,1.57 30.77,5.59 65.82,19.84 105.08,42.72 1.92,1.13 3.71,2.33 5.61,3.46 l 71.01,436.29 205.66,64.34 -57.41,-350.52 c 43.98,58.39 97.17,93.25 159.69,104.62 14.41,2.61 27.98,3.91 40.73,3.91 29.3,0 54.21,-6.91 74.64,-20.74 29.33,-19.9 45.35,-55.2 48.09,-106.01 1.38,-25.83 -0.34,-55.15 -5.15,-87.95 -4.84,-32.84 -12.07,-73.04 -21.75,-120.71 -6,-28.97 -11.29,-57.15 -15.92,-84.55 -4.68,-27.35 -6.58,-48.64 -5.76,-63.78 0.96,-17.82 5.9,-30.88 14.83,-39.16 6.14,-5.7 15.03,-8.54 26.67,-8.54 5.26,0 11.09,0.58 17.49,1.75 28,5.07 49.85,18.72 65.61,40.92 10.13,14.28 20,33.34 29.64,56.23 -0.14,2.19 -0.42,4.19 -0.54,6.42 -3.56,65.94 6.48,137.7 30.09,215.34 23.58,77.59 61.32,146.53 113.16,206.8 51.89,60.26 115.58,97.24 191.13,110.99 16.61,3.01 31.45,4.53 44.49,4.53 16.99,0 30.95,-2.57 41.89,-7.72 19.33,-9.07 29.54,-23.88 30.64,-44.34 l 0.53,-9.4 11.58,73.65 201.46,36.62 -76.24,-472.71 c -3.01,-14.03 -4.12,-28.65 -3.27,-43.79 1.75,-32.43 16.43,-48.63 44.11,-48.63 5.02,0 10.48,0.53 16.36,1.6 26.11,4.74 48.11,20.39 65.99,47.08 17.79,26.57 31.31,59.54 40.52,98.87 l 72.02,446.59 201.47,36.6 -76.2,-472.71 c -3.48,-23.16 -4.93,-39.58 -4.39,-49.4 1.3,-24.58 13.13,-36.85 35.53,-36.85 4.39,0 9.21,0.46 14.41,1.41 42.86,7.79 81.38,40.88 115.45,99.26 34.01,58.37 60.36,125.23 78.95,200.59 18.52,75.37 26.37,138.86 23.6,190.52 -1.64,-4.8 -7.49,-9.25 -17.65,-13.32 -10.15,-4.12 -18.93,-6.81 -26.39,-8.15 -2.96,-0.54 -5.81,-0.81 -8.56,-0.81 -11.98,0 -21.86,5.14 -29.68,15.42 -9.65,12.66 -14.88,27.46 -15.83,44.38 -1.13,21.37 5.15,40.06 18.87,56.05 13.72,15.98 35.09,26.65 63.98,31.9 6.92,1.26 13.45,1.89 19.59,1.89"
         style="fill:#353336;fill-opacity:1;fill-rule:nonzero;stroke:none"
         id="path90" /><path
         d="m 4809.07,2222.46 c 10.76,53.7 27.18,104.21 49.02,150.68 31.23,66.4 57.74,83.96 74.47,87 l 1.4,0.2 c 1.22,-2.13 3.9,-8.4 4.72,-23.48 1.72,-31.82 -5.17,-64.25 -20.48,-96.41 -15.7,-33 -37.5,-62.2 -64.82,-86.77 -14.23,-12.79 -29.04,-23.22 -44.31,-31.22 z m 767.41,470.53 v 0 c -14.29,0 -29.61,-1.46 -45.54,-4.35 -42.83,-7.81 -81.91,-25.62 -116.86,-53.18 -1.1,5.09 -3.67,9.82 -7.49,13.56 -5.09,4.99 -11.9,7.71 -18.9,7.71 -1.61,0 -3.23,-0.14 -4.84,-0.43 l -201.46,-36.62 c -11.26,-2.05 -20.01,-10.98 -21.84,-22.27 l -71.05,-439.77 c -37.5,-48.76 -72.59,-86.8 -104.34,-113.12 -30.9,-25.67 -69.65,-42.87 -115.19,-51.14 -10.31,-1.87 -19.64,-2.83 -27.78,-2.83 -13.17,0 -23,2.4 -29.24,7.14 -3.53,2.68 -15.26,15.26 -17.95,64.53 -0.23,4.41 -0.43,13.46 -0.28,31.72 51.25,15.08 99.85,38.88 144.71,70.94 50.92,36.43 91.68,80.48 121.14,130.91 30.15,51.76 43.94,105.87 41,160.88 -4.55,84.41 -53.35,130.89 -137.39,130.89 -16.78,0 -35.38,-1.83 -55.26,-5.45 -93.66,-17.02 -170.52,-60.58 -228.43,-129.47 -56.27,-66.94 -96.03,-142.47 -118.19,-224.5 -21.87,-81.2 -31.19,-154.72 -27.71,-218.54 4.41,-81.57 30.6,-139.27 77.85,-171.48 31.91,-21.76 71.61,-32.8 118,-32.8 20.38,0 42.49,2.14 65.71,6.36 98.05,17.83 185.46,66.41 260.85,144.78 l -8.77,-54.27 c -1.41,-8.66 1.49,-17.46 7.75,-23.6 5.1,-5 11.91,-7.73 18.92,-7.73 1.61,0 3.22,0.14 4.83,0.43 l 201.52,36.62 c 11.27,2.05 20.03,10.98 21.84,22.29 l 71.86,445.29 c 8.43,34.9 20.53,64.28 35.94,87.33 13.35,19.98 28.04,31.18 44.9,34.24 2.34,0.43 4.51,0.65 6.41,0.65 4.19,0 13.99,0 15.83,-34.55 0.9,-16.8 -0.97,-40.24 -5.58,-69.67 -4.69,-30.24 -10,-62.1 -15.81,-94.77 -1.68,-7.36 -4.27,-21.52 -8.35,-45.6 -3.79,-22.33 -7.42,-45.97 -11.07,-72.29 -3.62,-25.62 -4.9,-49.17 -3.8,-69.92 2.68,-50.15 18.52,-90.38 47.08,-119.58 22.67,-23.18 53.68,-34.93 92.16,-34.93 13.03,0 27.17,1.37 42.04,4.07 45.65,8.28 84.54,28.91 115.62,61.3 31.37,32.62 49.18,75.63 52.94,127.81 0.11,1.02 0.17,2.04 0.17,3.09 0,14.87 -11.98,26.93 -26.83,27.02 h -0.21 l -0.74,-0.01 c -6.37,-0.17 -12.18,-2.54 -16.72,-6.38 -0.89,-0.73 -7.9,-5.89 -33.12,-10.45 -4.83,-0.87 -9.07,-1.31 -12.69,-1.31 -6.29,0 -8.23,1.3 -8.25,1.31 -3.51,3.26 -5.72,10.65 -6.28,20.85 -0.68,13.11 1.14,32.55 5.42,57.76 4.49,26.46 9.79,54.61 15.75,83.64 10.01,49.4 17.21,89.36 22,122.26 5.07,34.35 6.91,65.76 5.47,93.28 -3.21,59.49 -23.4,102.18 -60.01,126.94 -24.83,16.86 -55.04,25.41 -89.74,25.41 z m 178.91,-540.32 h 0.05 m -980.75,28.21 c 34.35,8.08 66.63,25.65 96.77,52.71 30.07,27.06 53.81,58.8 71.15,95.25 17.34,36.45 25.03,72.92 23.06,109.47 -1.78,32.71 -12.1,49.08 -31,49.08 -2.2,0 -4.5,-0.22 -6.92,-0.66 -33.58,-6.09 -64.97,-40.14 -94.12,-102.1 -29.15,-62.02 -48.81,-129.92 -58.94,-203.75 m 801.79,485.09 c 29.3,0 54.2,-6.92 74.61,-20.77 29.38,-19.88 45.42,-55.18 48.16,-105.98 1.35,-25.85 -0.39,-55.15 -5.22,-87.97 -4.8,-32.85 -12.08,-73.04 -21.74,-120.72 -5.94,-28.98 -11.26,-57.15 -15.92,-84.55 -4.65,-27.35 -6.55,-48.61 -5.76,-63.75 0.97,-17.85 5.93,-30.88 14.86,-39.16 6.11,-5.7 15.01,-8.56 26.65,-8.56 5.27,0 11.09,0.59 17.48,1.75 22.42,4.05 37.65,9.55 45.79,16.41 -3.14,-46.48 -18.36,-83.89 -45.56,-112.2 -27.22,-28.36 -60.86,-46.14 -100.96,-53.42 -13.34,-2.42 -25.74,-3.63 -37.21,-3.63 -31.09,0 -55.34,8.92 -72.84,26.81 -23.91,24.44 -37.08,58.46 -39.41,102.12 -1,18.73 0.12,40.32 3.57,64.76 3.4,24.45 7.01,48.31 10.95,71.49 3.93,23.22 6.64,38.09 8.19,44.71 5.78,32.5 11.14,64.51 16.03,96 4.92,31.46 6.87,56.61 5.87,75.28 -2.14,40.1 -16.44,60.14 -42.82,60.14 -3.53,0 -7.28,-0.36 -11.25,-1.09 -24.25,-4.41 -45.07,-19.69 -62.52,-45.8 -17.45,-26.1 -30.77,-58.45 -40,-97.03 l -72.01,-446.31 -201.52,-36.62 24.71,152.88 c -84.55,-119.53 -187.27,-190.48 -308.3,-212.49 -21.73,-3.95 -42.02,-5.92 -60.87,-5.92 -41.07,0 -75.32,9.37 -102.78,28.1 -40.13,27.36 -62.14,77.55 -66.09,150.63 -3.35,61.47 5.65,131.45 26.81,210.02 21.22,78.5 58.79,149.91 112.8,214.15 54,64.25 124.88,104.34 212.58,120.27 18.37,3.35 35.18,5.02 50.42,5.02 69.82,0 106.62,-35.12 110.41,-105.3 2.66,-49.94 -9.81,-98.54 -37.35,-145.81 -27.65,-47.34 -65.44,-88.17 -113.51,-122.57 -48.09,-34.35 -100.03,-58.45 -155.77,-72.16 -0.44,-27.07 -0.41,-45.04 0.05,-53.96 2.4,-43.62 11.88,-71.86 28.59,-84.57 11.08,-8.42 26.27,-12.64 45.59,-12.64 9.8,0 20.67,1.09 32.6,3.26 50.42,9.16 92.92,28.11 127.62,56.93 34.71,28.77 72.25,69.75 112.68,122.9 l 72.13,446.47 201.47,36.62 -11.61,-72.28 c 43.94,58.38 97.12,93.23 159.69,104.62 14.41,2.62 27.97,3.92 40.71,3.92"
         style="fill:#353336;fill-opacity:1;fill-rule:nonzero;stroke:none"
         id="path92" /></g></g></svg>
